%TF.GenerationSoftware,Altium Limited,Altium NEXUS,3.2.6 (83)*%
G04 Layer_Color=128*
%FSLAX44Y44*%
%MOMM*%
%TF.SameCoordinates,1D3023CA-0B4D-445B-B615-3EAEB33096E1*%
%TF.FilePolarity,Positive*%
%TF.FileFunction,Paste,Bot*%
%TF.Part,Single*%
G01*
G75*
%TA.AperFunction,SMDPad,CuDef*%
%ADD10R,1.0000X1.0000*%
%ADD11R,1.0000X0.9000*%
G04:AMPARAMS|DCode=12|XSize=0.6mm|YSize=1.55mm|CornerRadius=0mm|HoleSize=0mm|Usage=FLASHONLY|Rotation=0.000|XOffset=0mm|YOffset=0mm|HoleType=Round|Shape=Octagon|*
%AMOCTAGOND12*
4,1,8,-0.1500,0.7750,0.1500,0.7750,0.3000,0.6250,0.3000,-0.6250,0.1500,-0.7750,-0.1500,-0.7750,-0.3000,-0.6250,-0.3000,0.6250,-0.1500,0.7750,0.0*
%
%ADD12OCTAGOND12*%

%ADD13R,0.6000X1.5500*%
%ADD14R,1.2000X1.8000*%
%ADD15R,0.9000X1.0000*%
%ADD16R,1.0000X1.0000*%
G04:AMPARAMS|DCode=28|XSize=0.5mm|YSize=0.71mm|CornerRadius=0mm|HoleSize=0mm|Usage=FLASHONLY|Rotation=270.000|XOffset=0mm|YOffset=0mm|HoleType=Round|Shape=Octagon|*
%AMOCTAGOND28*
4,1,8,0.3550,0.1250,0.3550,-0.1250,0.2300,-0.2500,-0.2300,-0.2500,-0.3550,-0.1250,-0.3550,0.1250,-0.2300,0.2500,0.2300,0.2500,0.3550,0.1250,0.0*
%
%ADD28OCTAGOND28*%

%ADD29R,0.7100X0.5000*%
G04:AMPARAMS|DCode=30|XSize=0.55mm|YSize=1.55mm|CornerRadius=0mm|HoleSize=0mm|Usage=FLASHONLY|Rotation=90.000|XOffset=0mm|YOffset=0mm|HoleType=Round|Shape=Octagon|*
%AMOCTAGOND30*
4,1,8,-0.7750,-0.1375,-0.7750,0.1375,-0.6375,0.2750,0.6375,0.2750,0.7750,0.1375,0.7750,-0.1375,0.6375,-0.2750,-0.6375,-0.2750,-0.7750,-0.1375,0.0*
%
%ADD30OCTAGOND30*%

%ADD31R,1.5500X0.5500*%
G04:AMPARAMS|DCode=74|XSize=0.65mm|YSize=1.1mm|CornerRadius=0mm|HoleSize=0mm|Usage=FLASHONLY|Rotation=90.000|XOffset=0mm|YOffset=0mm|HoleType=Round|Shape=Octagon|*
%AMOCTAGOND74*
4,1,8,-0.5500,-0.1625,-0.5500,0.1625,-0.3875,0.3250,0.3875,0.3250,0.5500,0.1625,0.5500,-0.1625,0.3875,-0.3250,-0.3875,-0.3250,-0.5500,-0.1625,0.0*
%
%ADD74OCTAGOND74*%

%ADD75R,1.1000X0.6500*%
%ADD76R,0.7000X0.9000*%
G04:AMPARAMS|DCode=77|XSize=0.55mm|YSize=1.55mm|CornerRadius=0mm|HoleSize=0mm|Usage=FLASHONLY|Rotation=180.000|XOffset=0mm|YOffset=0mm|HoleType=Round|Shape=Octagon|*
%AMOCTAGOND77*
4,1,8,0.1375,-0.7750,-0.1375,-0.7750,-0.2750,-0.6375,-0.2750,0.6375,-0.1375,0.7750,0.1375,0.7750,0.2750,0.6375,0.2750,-0.6375,0.1375,-0.7750,0.0*
%
%ADD77OCTAGOND77*%

%ADD78R,0.5500X1.5500*%
%TA.AperFunction,ConnectorPad*%
%ADD79R,0.9000X2.0000*%
%TA.AperFunction,SMDPad,CuDef*%
%ADD80O,0.9000X0.2500*%
%ADD81O,0.2500X0.9000*%
%ADD82O,1.4500X0.6000*%
%ADD83R,1.4500X0.6000*%
%TA.AperFunction,ConnectorPad*%
%ADD84R,1.0000X0.9000*%
%ADD85R,2.0000X0.9000*%
%TA.AperFunction,BGAPad,CuDef*%
%ADD86R,1.3300X1.3300*%
%TA.AperFunction,SMDPad,CuDef*%
%ADD87R,1.6000X1.6000*%
D10*
X571750Y1310500D02*
D03*
X587750D02*
D03*
X588750Y1214500D02*
D03*
X572750D02*
D03*
X645500Y1230000D02*
D03*
X661500D02*
D03*
X620500Y1230500D02*
D03*
X646250Y1442000D02*
D03*
X646000Y1410500D02*
D03*
X662000D02*
D03*
X646000Y1426500D02*
D03*
X662000D02*
D03*
X312250Y1404750D02*
D03*
X604500Y1230500D02*
D03*
X662250Y1442000D02*
D03*
X296250Y1404750D02*
D03*
X661250Y1246250D02*
D03*
X645250D02*
D03*
X661250Y1213500D02*
D03*
X645250D02*
D03*
X599750Y1456250D02*
D03*
X583750D02*
D03*
X344500Y1419750D02*
D03*
X328500D02*
D03*
X296250D02*
D03*
X312250D02*
D03*
D11*
X473250Y1477250D02*
D03*
Y1460250D02*
D03*
X348750Y1165500D02*
D03*
Y1148500D02*
D03*
X613500Y1160000D02*
D03*
Y1177000D02*
D03*
X587750Y1156500D02*
D03*
Y1139500D02*
D03*
X563250Y1405250D02*
D03*
Y1388250D02*
D03*
X518250Y1353500D02*
D03*
X653500Y1472500D02*
D03*
X637000Y1472750D02*
D03*
X620750D02*
D03*
X669880Y1472760D02*
D03*
X518250Y1336500D02*
D03*
X548250Y1336500D02*
D03*
X593250Y1353750D02*
D03*
X620750Y1455750D02*
D03*
X637000D02*
D03*
X653500Y1455500D02*
D03*
X669880Y1455760D02*
D03*
X589000Y1264500D02*
D03*
Y1281500D02*
D03*
X501500Y1403750D02*
D03*
Y1386750D02*
D03*
X333750Y1165500D02*
D03*
Y1148500D02*
D03*
X375750Y1403500D02*
D03*
Y1420500D02*
D03*
X593250Y1370750D02*
D03*
X563250Y1353750D02*
D03*
Y1370750D02*
D03*
X548250Y1353500D02*
D03*
D12*
X635500Y1110500D02*
D03*
D13*
X625500D02*
D03*
X615500D02*
D03*
D14*
X602500Y1073750D02*
D03*
X648500D02*
D03*
D15*
X385500Y1148500D02*
D03*
X368500D02*
D03*
X404250Y1148250D02*
D03*
X421250D02*
D03*
X453250D02*
D03*
X436250D02*
D03*
X482250Y1444500D02*
D03*
X465250D02*
D03*
X646000Y1160500D02*
D03*
X629000D02*
D03*
X521500Y1156500D02*
D03*
X538500D02*
D03*
X508500Y1254250D02*
D03*
X491500D02*
D03*
X645750Y1144000D02*
D03*
X628750D02*
D03*
X629000Y1193250D02*
D03*
X646000D02*
D03*
X629000Y1177000D02*
D03*
X646000D02*
D03*
X588500Y1294500D02*
D03*
X572000Y1230500D02*
D03*
X603500Y1246500D02*
D03*
X619500Y1214000D02*
D03*
X459000Y1460250D02*
D03*
X442000D02*
D03*
X620500Y1246500D02*
D03*
X602500Y1214000D02*
D03*
X589000Y1230500D02*
D03*
X571500Y1294500D02*
D03*
X600500Y1472250D02*
D03*
X583500D02*
D03*
X544500Y1254750D02*
D03*
X527500D02*
D03*
X345000Y1404750D02*
D03*
X328000D02*
D03*
X589250Y1246750D02*
D03*
X572250D02*
D03*
D16*
X369250Y1105500D02*
D03*
Y1121500D02*
D03*
X584750Y1110500D02*
D03*
Y1094500D02*
D03*
X613750Y1143500D02*
D03*
Y1127500D02*
D03*
X533250Y1337000D02*
D03*
Y1353000D02*
D03*
X577750Y1354250D02*
D03*
Y1370250D02*
D03*
X486000Y1387500D02*
D03*
Y1403500D02*
D03*
X307750Y1459500D02*
D03*
Y1443500D02*
D03*
X401750Y1497000D02*
D03*
Y1481000D02*
D03*
X488250Y1476750D02*
D03*
Y1460750D02*
D03*
X572250Y1265250D02*
D03*
Y1281250D02*
D03*
X400000Y1442500D02*
D03*
Y1458500D02*
D03*
X593250Y1404750D02*
D03*
Y1388750D02*
D03*
X360750Y1420000D02*
D03*
Y1404000D02*
D03*
D28*
X636000Y1491250D02*
D03*
D29*
X660000D02*
D03*
D30*
X508500Y1269500D02*
D03*
D31*
X527000Y1279000D02*
D03*
X508500Y1288500D02*
D03*
D74*
X417500Y1113500D02*
D03*
X567000Y1112000D02*
D03*
D75*
X417500Y1104000D02*
D03*
Y1094500D02*
D03*
X393500D02*
D03*
Y1113500D02*
D03*
X543000Y1112000D02*
D03*
Y1093000D02*
D03*
X567000D02*
D03*
Y1102500D02*
D03*
D76*
X562000Y1079000D02*
D03*
X547000D02*
D03*
X515500Y1102750D02*
D03*
X530500D02*
D03*
D77*
X551945Y1157311D02*
D03*
D78*
X570945D02*
D03*
X561445Y1138811D02*
D03*
D79*
X349050Y1201000D02*
D03*
X310950D02*
D03*
X298250D02*
D03*
X336350D02*
D03*
X323650D02*
D03*
X361750D02*
D03*
X387150D02*
D03*
X374450D02*
D03*
X412550D02*
D03*
X399850D02*
D03*
X437950D02*
D03*
X425250D02*
D03*
X463350D02*
D03*
X450650D02*
D03*
X310950Y1371000D02*
D03*
X298250D02*
D03*
X336350D02*
D03*
X323650D02*
D03*
X361750D02*
D03*
X349050D02*
D03*
X387150D02*
D03*
X374450D02*
D03*
X412550D02*
D03*
X399850D02*
D03*
X437950D02*
D03*
X425250D02*
D03*
X463350D02*
D03*
X450650D02*
D03*
D80*
X630250Y1284250D02*
D03*
X661250Y1294250D02*
D03*
Y1289250D02*
D03*
Y1284250D02*
D03*
Y1279250D02*
D03*
X630250D02*
D03*
Y1289250D02*
D03*
Y1294250D02*
D03*
X660500Y1371250D02*
D03*
Y1366250D02*
D03*
Y1361250D02*
D03*
Y1356250D02*
D03*
X629500D02*
D03*
Y1361250D02*
D03*
Y1366250D02*
D03*
Y1371250D02*
D03*
D81*
X642500Y1348250D02*
D03*
X652500Y1379250D02*
D03*
Y1348250D02*
D03*
X643250Y1271250D02*
D03*
X638250Y1302250D02*
D03*
X643250D02*
D03*
X648250D02*
D03*
X653250D02*
D03*
Y1271250D02*
D03*
X648250D02*
D03*
X638250D02*
D03*
X637500Y1379250D02*
D03*
X642500D02*
D03*
X647500D02*
D03*
Y1348250D02*
D03*
X637500D02*
D03*
D82*
X326250Y1441200D02*
D03*
D83*
Y1453900D02*
D03*
Y1466600D02*
D03*
Y1479300D02*
D03*
X380750Y1441200D02*
D03*
Y1453900D02*
D03*
Y1466600D02*
D03*
Y1479300D02*
D03*
D84*
X416750Y1480500D02*
D03*
Y1497500D02*
D03*
D85*
X473350Y1330450D02*
D03*
Y1343150D02*
D03*
Y1305050D02*
D03*
Y1317750D02*
D03*
Y1279650D02*
D03*
Y1292350D02*
D03*
Y1254250D02*
D03*
Y1266950D02*
D03*
Y1228850D02*
D03*
Y1241550D02*
D03*
D86*
X373250Y1296850D02*
D03*
X354900D02*
D03*
X391600D02*
D03*
X373250Y1278500D02*
D03*
Y1315200D02*
D03*
X354900D02*
D03*
X391600D02*
D03*
Y1278500D02*
D03*
X354900D02*
D03*
D87*
X645750Y1286750D02*
D03*
X645000Y1363750D02*
D03*
%TF.MD5,b4587132cda6c6c9fba555aee2413da9*%
M02*
