%TF.GenerationSoftware,Altium Limited,Altium NEXUS,3.2.6 (83)*%
G04 Layer_Color=0*
%FSLAX44Y44*%
%MOMM*%
%TF.SameCoordinates,1D3023CA-0B4D-445B-B615-3EAEB33096E1*%
%TF.FilePolarity,Positive*%
%TF.FileFunction,Profile,NP*%
%TF.Part,Single*%
G01*
G75*
%TA.AperFunction,Profile*%
%ADD156C,0.0254*%
D156*
X284510Y1455839D02*
X283318Y1457735D01*
X281735Y1459318D01*
X279839Y1460510D01*
X277725Y1461249D01*
X275500Y1461500D01*
X245500D01*
X243275Y1461750D01*
X241161Y1462490D01*
X239265Y1463681D01*
X237682Y1465265D01*
X236490Y1467161D01*
X235751Y1469275D01*
X235500Y1471500D01*
Y1501500D01*
X235751Y1503725D01*
X236490Y1505839D01*
X237682Y1507735D01*
X239265Y1509318D01*
X241161Y1510510D01*
X243275Y1511249D01*
X245500Y1511500D01*
X665500D01*
X669950Y1510998D01*
X674178Y1509519D01*
X677970Y1507136D01*
X681137Y1503970D01*
X683519Y1500177D01*
X684998Y1495950D01*
X685500Y1491500D01*
Y1121500D01*
X685751Y1119275D01*
X686490Y1117161D01*
X687682Y1115265D01*
X689265Y1113681D01*
X691161Y1112490D01*
X693275Y1111751D01*
X695500Y1111500D01*
X725500D01*
X727725Y1111249D01*
X729839Y1110509D01*
X731735Y1109318D01*
X733318Y1107735D01*
X734510Y1105839D01*
X735249Y1103725D01*
X735500Y1101500D01*
Y1071500D01*
X735249Y1069275D01*
X734510Y1067161D01*
X733318Y1065265D01*
X731735Y1063681D01*
X729839Y1062490D01*
X727725Y1061751D01*
X725500Y1061500D01*
X305500D01*
X301049Y1062001D01*
X296822Y1063480D01*
X293030Y1065863D01*
X289863Y1069030D01*
X287481Y1072822D01*
X286001Y1077049D01*
X285500Y1081500D01*
X285500Y1451500D01*
X285249Y1453725D01*
X284510Y1455839D01*
%TF.MD5,c6d672dca351ea908513915e4c5ed7f0*%
M02*
