G04*
G04 #@! TF.GenerationSoftware,Altium Limited,Altium NEXUS,3.2.6 (83)*
G04*
G04 Layer_Color=65535*
%FSLAX44Y44*%
%MOMM*%
G71*
G04*
G04 #@! TF.SameCoordinates,94BC8023-4A76-4542-B889-E0E782ADE639*
G04*
G04*
G04 #@! TF.FilePolarity,Positive*
G04*
G01*
G75*
%ADD10C,0.2000*%
G36*
X1665149Y422060D02*
X1665205D01*
X1665279Y422051D01*
X1665454Y422023D01*
X1665648Y421977D01*
X1665852Y421903D01*
X1666055Y421810D01*
X1666249Y421681D01*
X1666259D01*
X1666268Y421662D01*
X1666323Y421607D01*
X1666407Y421524D01*
X1666508Y421403D01*
X1666610Y421255D01*
X1666712Y421071D01*
X1666804Y420858D01*
X1666869Y420608D01*
X1666101Y420488D01*
Y420497D01*
X1666092Y420507D01*
X1666083Y420562D01*
X1666055Y420645D01*
X1666009Y420747D01*
X1665963Y420858D01*
X1665889Y420978D01*
X1665806Y421089D01*
X1665713Y421181D01*
X1665704Y421191D01*
X1665667Y421218D01*
X1665602Y421255D01*
X1665528Y421302D01*
X1665426Y421348D01*
X1665316Y421385D01*
X1665186Y421413D01*
X1665047Y421422D01*
X1664992D01*
X1664946Y421413D01*
X1664844Y421403D01*
X1664705Y421366D01*
X1664557Y421320D01*
X1664391Y421246D01*
X1664234Y421135D01*
X1664160Y421071D01*
X1664086Y420997D01*
Y420987D01*
X1664067Y420978D01*
X1664049Y420950D01*
X1664030Y420913D01*
X1664003Y420867D01*
X1663966Y420812D01*
X1663938Y420747D01*
X1663901Y420673D01*
X1663864Y420581D01*
X1663836Y420479D01*
X1663799Y420368D01*
X1663772Y420248D01*
X1663753Y420118D01*
X1663734Y419970D01*
X1663716Y419813D01*
Y419647D01*
Y419637D01*
Y419610D01*
Y419554D01*
X1663725Y419499D01*
Y419416D01*
X1663734Y419332D01*
X1663762Y419129D01*
X1663799Y418907D01*
X1663864Y418676D01*
X1663947Y418473D01*
X1664003Y418371D01*
X1664067Y418288D01*
X1664086Y418269D01*
X1664132Y418223D01*
X1664215Y418158D01*
X1664317Y418084D01*
X1664456Y418001D01*
X1664613Y417936D01*
X1664798Y417890D01*
X1664899Y417881D01*
X1665001Y417872D01*
X1665020D01*
X1665075Y417881D01*
X1665168Y417890D01*
X1665269Y417909D01*
X1665390Y417936D01*
X1665519Y417992D01*
X1665648Y418056D01*
X1665769Y418149D01*
X1665787Y418158D01*
X1665815Y418204D01*
X1665870Y418269D01*
X1665935Y418371D01*
X1666000Y418491D01*
X1666074Y418639D01*
X1666129Y418824D01*
X1666166Y419027D01*
X1666943Y418926D01*
Y418916D01*
X1666933Y418889D01*
X1666924Y418852D01*
X1666915Y418796D01*
X1666897Y418722D01*
X1666878Y418648D01*
X1666813Y418463D01*
X1666730Y418269D01*
X1666610Y418056D01*
X1666462Y417853D01*
X1666379Y417761D01*
X1666286Y417668D01*
X1666277Y417659D01*
X1666259Y417650D01*
X1666231Y417631D01*
X1666194Y417603D01*
X1666148Y417566D01*
X1666083Y417529D01*
X1666009Y417492D01*
X1665935Y417446D01*
X1665750Y417363D01*
X1665528Y417298D01*
X1665288Y417243D01*
X1665149Y417234D01*
X1665010Y417224D01*
X1664918D01*
X1664853Y417234D01*
X1664770Y417243D01*
X1664678Y417261D01*
X1664576Y417280D01*
X1664465Y417298D01*
X1664215Y417372D01*
X1664095Y417428D01*
X1663966Y417483D01*
X1663836Y417557D01*
X1663716Y417640D01*
X1663596Y417733D01*
X1663485Y417844D01*
X1663476Y417853D01*
X1663457Y417872D01*
X1663429Y417909D01*
X1663392Y417955D01*
X1663356Y418019D01*
X1663300Y418103D01*
X1663254Y418195D01*
X1663198Y418297D01*
X1663143Y418417D01*
X1663097Y418556D01*
X1663041Y418694D01*
X1663004Y418861D01*
X1662967Y419027D01*
X1662939Y419221D01*
X1662921Y419416D01*
X1662912Y419628D01*
Y419637D01*
Y419665D01*
Y419702D01*
Y419758D01*
X1662921Y419822D01*
Y419896D01*
X1662930Y419980D01*
X1662939Y420072D01*
X1662967Y420275D01*
X1663013Y420497D01*
X1663069Y420719D01*
X1663152Y420941D01*
Y420950D01*
X1663161Y420969D01*
X1663180Y420997D01*
X1663198Y421034D01*
X1663254Y421135D01*
X1663337Y421255D01*
X1663448Y421394D01*
X1663577Y421533D01*
X1663734Y421671D01*
X1663910Y421782D01*
X1663920D01*
X1663938Y421792D01*
X1663966Y421810D01*
X1664003Y421829D01*
X1664049Y421847D01*
X1664104Y421875D01*
X1664243Y421930D01*
X1664400Y421977D01*
X1664594Y422023D01*
X1664798Y422060D01*
X1665020Y422069D01*
X1665094D01*
X1665149Y422060D01*
D02*
G37*
G36*
X1668404Y420072D02*
X1670262Y421967D01*
X1671288D01*
X1669504Y420238D01*
X1671464Y417326D01*
X1670493D01*
X1668949Y419693D01*
X1668404Y419166D01*
Y417326D01*
X1667618D01*
Y423724D01*
X1668404D01*
Y420072D01*
D02*
G37*
G36*
X1660332Y422060D02*
X1660471Y422051D01*
X1660628Y422032D01*
X1660785Y422004D01*
X1660942Y421967D01*
X1661090Y421921D01*
X1661109Y421912D01*
X1661155Y421893D01*
X1661220Y421866D01*
X1661303Y421829D01*
X1661395Y421773D01*
X1661488Y421718D01*
X1661571Y421644D01*
X1661645Y421570D01*
X1661654Y421561D01*
X1661673Y421533D01*
X1661700Y421487D01*
X1661738Y421431D01*
X1661784Y421348D01*
X1661821Y421265D01*
X1661858Y421163D01*
X1661885Y421043D01*
Y421034D01*
X1661895Y421006D01*
X1661904Y420950D01*
X1661913Y420876D01*
Y420775D01*
X1661922Y420654D01*
X1661932Y420497D01*
Y420322D01*
Y419268D01*
Y419258D01*
Y419221D01*
Y419166D01*
Y419092D01*
Y419009D01*
Y418907D01*
X1661941Y418685D01*
Y418454D01*
X1661950Y418223D01*
X1661959Y418121D01*
Y418029D01*
X1661969Y417946D01*
X1661978Y417881D01*
Y417872D01*
X1661987Y417835D01*
X1661996Y417779D01*
X1662024Y417705D01*
X1662043Y417622D01*
X1662080Y417529D01*
X1662126Y417428D01*
X1662172Y417326D01*
X1661349D01*
X1661340Y417335D01*
X1661331Y417372D01*
X1661312Y417419D01*
X1661284Y417492D01*
X1661257Y417576D01*
X1661238Y417677D01*
X1661220Y417788D01*
X1661201Y417909D01*
X1661192D01*
X1661183Y417890D01*
X1661127Y417844D01*
X1661044Y417779D01*
X1660933Y417696D01*
X1660794Y417613D01*
X1660656Y417520D01*
X1660508Y417437D01*
X1660351Y417372D01*
X1660332Y417363D01*
X1660277Y417354D01*
X1660193Y417326D01*
X1660092Y417298D01*
X1659962Y417271D01*
X1659814Y417252D01*
X1659648Y417234D01*
X1659482Y417224D01*
X1659408D01*
X1659352Y417234D01*
X1659287D01*
X1659213Y417243D01*
X1659047Y417271D01*
X1658862Y417317D01*
X1658659Y417382D01*
X1658474Y417474D01*
X1658307Y417594D01*
X1658289Y417613D01*
X1658243Y417659D01*
X1658178Y417742D01*
X1658104Y417853D01*
X1658030Y417992D01*
X1657965Y418149D01*
X1657919Y418343D01*
X1657910Y418436D01*
X1657901Y418546D01*
Y418565D01*
Y418602D01*
X1657910Y418667D01*
X1657919Y418750D01*
X1657938Y418852D01*
X1657965Y418953D01*
X1658002Y419064D01*
X1658049Y419166D01*
X1658058Y419175D01*
X1658076Y419212D01*
X1658113Y419268D01*
X1658159Y419332D01*
X1658215Y419406D01*
X1658289Y419480D01*
X1658363Y419554D01*
X1658455Y419619D01*
X1658465Y419628D01*
X1658501Y419647D01*
X1658548Y419684D01*
X1658622Y419721D01*
X1658705Y419758D01*
X1658807Y419804D01*
X1658908Y419841D01*
X1659028Y419878D01*
X1659038D01*
X1659075Y419887D01*
X1659130Y419906D01*
X1659204Y419915D01*
X1659297Y419933D01*
X1659417Y419952D01*
X1659556Y419980D01*
X1659722Y419998D01*
X1659731D01*
X1659768Y420007D01*
X1659814D01*
X1659879Y420017D01*
X1659953Y420026D01*
X1660045Y420044D01*
X1660147Y420054D01*
X1660258Y420072D01*
X1660480Y420118D01*
X1660721Y420164D01*
X1660933Y420220D01*
X1661035Y420248D01*
X1661127Y420275D01*
Y420285D01*
Y420303D01*
X1661136Y420359D01*
Y420423D01*
Y420460D01*
Y420479D01*
Y420488D01*
Y420497D01*
Y420553D01*
X1661127Y420645D01*
X1661109Y420747D01*
X1661081Y420858D01*
X1661035Y420969D01*
X1660979Y421071D01*
X1660905Y421154D01*
X1660896Y421163D01*
X1660850Y421200D01*
X1660776Y421237D01*
X1660683Y421292D01*
X1660554Y421339D01*
X1660406Y421385D01*
X1660221Y421413D01*
X1660009Y421422D01*
X1659916D01*
X1659824Y421413D01*
X1659694Y421394D01*
X1659565Y421376D01*
X1659426Y421339D01*
X1659297Y421292D01*
X1659186Y421228D01*
X1659176Y421218D01*
X1659140Y421191D01*
X1659093Y421144D01*
X1659038Y421071D01*
X1658982Y420978D01*
X1658918Y420858D01*
X1658862Y420710D01*
X1658807Y420544D01*
X1658039Y420645D01*
Y420654D01*
X1658049Y420664D01*
Y420691D01*
X1658058Y420728D01*
X1658085Y420812D01*
X1658123Y420932D01*
X1658169Y421052D01*
X1658224Y421181D01*
X1658298Y421311D01*
X1658381Y421431D01*
X1658391Y421440D01*
X1658428Y421477D01*
X1658483Y421533D01*
X1658557Y421607D01*
X1658659Y421681D01*
X1658779Y421755D01*
X1658918Y421838D01*
X1659075Y421903D01*
X1659084D01*
X1659093Y421912D01*
X1659121Y421921D01*
X1659158Y421930D01*
X1659250Y421958D01*
X1659380Y421986D01*
X1659528Y422014D01*
X1659713Y422041D01*
X1659907Y422060D01*
X1660129Y422069D01*
X1660231D01*
X1660332Y422060D01*
D02*
G37*
G36*
X1654850Y423715D02*
X1654924D01*
X1655090Y423696D01*
X1655275Y423678D01*
X1655469Y423641D01*
X1655663Y423595D01*
X1655839Y423530D01*
X1655848D01*
X1655857Y423521D01*
X1655913Y423493D01*
X1655996Y423447D01*
X1656088Y423382D01*
X1656199Y423299D01*
X1656320Y423197D01*
X1656431Y423068D01*
X1656532Y422929D01*
X1656541Y422910D01*
X1656569Y422855D01*
X1656615Y422781D01*
X1656662Y422670D01*
X1656708Y422541D01*
X1656754Y422402D01*
X1656782Y422245D01*
X1656791Y422088D01*
Y422069D01*
Y422023D01*
X1656782Y421940D01*
X1656763Y421838D01*
X1656736Y421718D01*
X1656689Y421588D01*
X1656634Y421459D01*
X1656560Y421320D01*
X1656551Y421302D01*
X1656523Y421265D01*
X1656467Y421191D01*
X1656393Y421117D01*
X1656301Y421024D01*
X1656190Y420923D01*
X1656051Y420830D01*
X1655894Y420738D01*
X1655903D01*
X1655922Y420728D01*
X1655950Y420719D01*
X1655987Y420701D01*
X1656098Y420664D01*
X1656227Y420599D01*
X1656366Y420516D01*
X1656523Y420414D01*
X1656662Y420294D01*
X1656791Y420146D01*
X1656800Y420127D01*
X1656837Y420072D01*
X1656893Y419989D01*
X1656948Y419878D01*
X1657004Y419730D01*
X1657059Y419573D01*
X1657096Y419388D01*
X1657105Y419184D01*
Y419175D01*
Y419166D01*
Y419110D01*
X1657096Y419018D01*
X1657078Y418907D01*
X1657059Y418778D01*
X1657022Y418639D01*
X1656976Y418491D01*
X1656911Y418343D01*
X1656902Y418325D01*
X1656874Y418278D01*
X1656837Y418214D01*
X1656782Y418121D01*
X1656708Y418029D01*
X1656634Y417927D01*
X1656541Y417825D01*
X1656440Y417742D01*
X1656431Y417733D01*
X1656393Y417705D01*
X1656329Y417668D01*
X1656246Y417631D01*
X1656144Y417576D01*
X1656024Y417520D01*
X1655894Y417474D01*
X1655737Y417428D01*
X1655719D01*
X1655663Y417409D01*
X1655571Y417400D01*
X1655450Y417382D01*
X1655303Y417363D01*
X1655127Y417345D01*
X1654933Y417335D01*
X1654711Y417326D01*
X1652270D01*
Y423724D01*
X1654785D01*
X1654850Y423715D01*
D02*
G37*
G36*
X1659398Y415048D02*
X1658613D01*
Y415945D01*
X1659398D01*
Y415048D01*
D02*
G37*
G36*
X1666360Y413652D02*
X1666369Y413661D01*
X1666388Y413680D01*
X1666416Y413707D01*
X1666462Y413754D01*
X1666508Y413800D01*
X1666573Y413855D01*
X1666656Y413911D01*
X1666739Y413975D01*
X1666832Y414031D01*
X1666933Y414086D01*
X1667174Y414188D01*
X1667303Y414234D01*
X1667442Y414262D01*
X1667590Y414281D01*
X1667738Y414290D01*
X1667821D01*
X1667923Y414281D01*
X1668043Y414262D01*
X1668182Y414244D01*
X1668330Y414207D01*
X1668477Y414151D01*
X1668625Y414086D01*
X1668644Y414077D01*
X1668690Y414049D01*
X1668755Y414003D01*
X1668838Y413938D01*
X1668921Y413855D01*
X1669014Y413763D01*
X1669097Y413652D01*
X1669171Y413522D01*
X1669180Y413504D01*
X1669199Y413458D01*
X1669226Y413374D01*
X1669254Y413254D01*
X1669282Y413106D01*
X1669310Y412931D01*
X1669328Y412718D01*
X1669337Y412478D01*
Y409547D01*
X1668551D01*
Y412487D01*
Y412496D01*
Y412515D01*
Y412542D01*
Y412579D01*
X1668542Y412681D01*
X1668524Y412811D01*
X1668487Y412949D01*
X1668441Y413088D01*
X1668376Y413227D01*
X1668293Y413338D01*
X1668283Y413347D01*
X1668246Y413384D01*
X1668191Y413430D01*
X1668108Y413476D01*
X1668006Y413532D01*
X1667886Y413569D01*
X1667738Y413606D01*
X1667572Y413615D01*
X1667516D01*
X1667451Y413606D01*
X1667359Y413596D01*
X1667266Y413569D01*
X1667155Y413541D01*
X1667045Y413495D01*
X1666924Y413430D01*
X1666915Y413421D01*
X1666878Y413393D01*
X1666823Y413356D01*
X1666758Y413301D01*
X1666684Y413227D01*
X1666610Y413143D01*
X1666545Y413042D01*
X1666490Y412931D01*
X1666481Y412912D01*
X1666471Y412875D01*
X1666453Y412801D01*
X1666425Y412709D01*
X1666397Y412589D01*
X1666379Y412441D01*
X1666369Y412274D01*
X1666360Y412080D01*
Y409547D01*
X1665574D01*
Y415945D01*
X1666360D01*
Y413652D01*
D02*
G37*
G36*
X1659398Y409547D02*
X1658613D01*
Y414188D01*
X1659398D01*
Y409547D01*
D02*
G37*
G36*
X1655312Y415936D02*
X1655395D01*
X1655589Y415926D01*
X1655793Y415899D01*
X1656015Y415871D01*
X1656218Y415825D01*
X1656320Y415797D01*
X1656403Y415769D01*
X1656412D01*
X1656421Y415760D01*
X1656477Y415732D01*
X1656560Y415695D01*
X1656662Y415630D01*
X1656773Y415547D01*
X1656893Y415436D01*
X1657004Y415307D01*
X1657115Y415159D01*
Y415150D01*
X1657124Y415140D01*
X1657161Y415085D01*
X1657198Y414992D01*
X1657253Y414872D01*
X1657300Y414734D01*
X1657346Y414567D01*
X1657374Y414392D01*
X1657383Y414197D01*
Y414188D01*
Y414170D01*
Y414133D01*
X1657374Y414086D01*
Y414022D01*
X1657364Y413957D01*
X1657327Y413800D01*
X1657272Y413615D01*
X1657198Y413421D01*
X1657087Y413227D01*
X1657013Y413134D01*
X1656939Y413042D01*
X1656930Y413032D01*
X1656920Y413023D01*
X1656893Y412995D01*
X1656856Y412968D01*
X1656810Y412931D01*
X1656754Y412894D01*
X1656680Y412848D01*
X1656606Y412792D01*
X1656514Y412746D01*
X1656412Y412700D01*
X1656301Y412644D01*
X1656181Y412598D01*
X1656042Y412561D01*
X1655903Y412515D01*
X1655746Y412487D01*
X1655580Y412459D01*
X1655598Y412450D01*
X1655635Y412431D01*
X1655691Y412394D01*
X1655765Y412357D01*
X1655931Y412256D01*
X1656015Y412191D01*
X1656088Y412136D01*
X1656107Y412117D01*
X1656153Y412071D01*
X1656227Y411997D01*
X1656320Y411904D01*
X1656421Y411775D01*
X1656541Y411636D01*
X1656662Y411470D01*
X1656791Y411285D01*
X1657891Y409547D01*
X1656837D01*
X1655996Y410878D01*
Y410887D01*
X1655977Y410906D01*
X1655959Y410934D01*
X1655931Y410971D01*
X1655867Y411072D01*
X1655783Y411202D01*
X1655682Y411340D01*
X1655580Y411488D01*
X1655478Y411627D01*
X1655386Y411757D01*
X1655376Y411766D01*
X1655349Y411803D01*
X1655303Y411858D01*
X1655238Y411923D01*
X1655099Y412062D01*
X1655025Y412126D01*
X1654951Y412182D01*
X1654942Y412191D01*
X1654924Y412200D01*
X1654886Y412219D01*
X1654831Y412247D01*
X1654776Y412274D01*
X1654711Y412302D01*
X1654563Y412348D01*
X1654554D01*
X1654535Y412357D01*
X1654498D01*
X1654452Y412367D01*
X1654387Y412376D01*
X1654313D01*
X1654212Y412385D01*
X1653121D01*
Y409547D01*
X1652270D01*
Y415945D01*
X1655238D01*
X1655312Y415936D01*
D02*
G37*
G36*
X1671464Y414188D02*
X1672259D01*
Y413578D01*
X1671464D01*
Y410850D01*
Y410832D01*
Y410795D01*
Y410740D01*
X1671473Y410675D01*
X1671482Y410527D01*
X1671492Y410462D01*
X1671501Y410416D01*
X1671510Y410397D01*
X1671538Y410360D01*
X1671575Y410314D01*
X1671640Y410268D01*
X1671658Y410259D01*
X1671704Y410240D01*
X1671788Y410222D01*
X1671908Y410213D01*
X1672000D01*
X1672046Y410222D01*
X1672111D01*
X1672185Y410231D01*
X1672259Y410240D01*
X1672361Y409547D01*
X1672342D01*
X1672305Y409538D01*
X1672240Y409528D01*
X1672157Y409519D01*
X1672065Y409501D01*
X1671963Y409491D01*
X1671760Y409482D01*
X1671686D01*
X1671612Y409491D01*
X1671519Y409501D01*
X1671408Y409510D01*
X1671297Y409538D01*
X1671196Y409565D01*
X1671094Y409612D01*
X1671085Y409621D01*
X1671057Y409639D01*
X1671020Y409667D01*
X1670965Y409713D01*
X1670918Y409759D01*
X1670863Y409824D01*
X1670807Y409889D01*
X1670770Y409972D01*
Y409981D01*
X1670752Y410018D01*
X1670743Y410083D01*
X1670724Y410176D01*
X1670706Y410296D01*
X1670697Y410370D01*
Y410453D01*
X1670687Y410555D01*
X1670678Y410656D01*
Y410767D01*
Y410897D01*
Y413578D01*
X1670096D01*
Y414188D01*
X1670678D01*
Y415335D01*
X1671464Y415806D01*
Y414188D01*
D02*
G37*
G36*
X1662440Y414281D02*
X1662505Y414271D01*
X1662588Y414253D01*
X1662681Y414234D01*
X1662782Y414207D01*
X1662884Y414170D01*
X1662995Y414123D01*
X1663106Y414068D01*
X1663226Y414003D01*
X1663337Y413929D01*
X1663448Y413837D01*
X1663559Y413735D01*
X1663661Y413615D01*
Y414188D01*
X1664382D01*
Y410176D01*
Y410166D01*
Y410129D01*
Y410074D01*
Y410000D01*
X1664373Y409917D01*
Y409815D01*
X1664363Y409704D01*
X1664354Y409584D01*
X1664326Y409334D01*
X1664289Y409075D01*
X1664261Y408955D01*
X1664234Y408844D01*
X1664197Y408742D01*
X1664160Y408650D01*
Y408641D01*
X1664151Y408632D01*
X1664114Y408576D01*
X1664067Y408493D01*
X1663993Y408391D01*
X1663892Y408280D01*
X1663772Y408160D01*
X1663624Y408040D01*
X1663457Y407938D01*
X1663448D01*
X1663439Y407929D01*
X1663411Y407910D01*
X1663374Y407901D01*
X1663328Y407873D01*
X1663272Y407855D01*
X1663134Y407809D01*
X1662967Y407753D01*
X1662764Y407716D01*
X1662533Y407679D01*
X1662283Y407670D01*
X1662200D01*
X1662144Y407679D01*
X1662070D01*
X1661996Y407688D01*
X1661904Y407698D01*
X1661802Y407716D01*
X1661590Y407762D01*
X1661368Y407827D01*
X1661146Y407920D01*
X1660942Y408049D01*
X1660933Y408058D01*
X1660924Y408068D01*
X1660859Y408123D01*
X1660785Y408206D01*
X1660693Y408326D01*
X1660600Y408484D01*
X1660517Y408678D01*
X1660489Y408789D01*
X1660471Y408909D01*
X1660452Y409029D01*
Y409168D01*
X1661220Y409066D01*
Y409048D01*
X1661229Y409011D01*
X1661248Y408946D01*
X1661266Y408863D01*
X1661303Y408779D01*
X1661349Y408696D01*
X1661405Y408613D01*
X1661479Y408548D01*
X1661497Y408539D01*
X1661534Y408511D01*
X1661599Y408474D01*
X1661691Y408437D01*
X1661802Y408391D01*
X1661941Y408354D01*
X1662107Y408326D01*
X1662283Y408317D01*
X1662375D01*
X1662468Y408326D01*
X1662597Y408345D01*
X1662727Y408373D01*
X1662865Y408410D01*
X1663004Y408465D01*
X1663124Y408539D01*
X1663134Y408548D01*
X1663171Y408576D01*
X1663226Y408632D01*
X1663291Y408696D01*
X1663356Y408789D01*
X1663420Y408890D01*
X1663485Y409011D01*
X1663531Y409149D01*
Y409159D01*
X1663540Y409196D01*
X1663550Y409269D01*
X1663559Y409362D01*
X1663568Y409427D01*
Y409501D01*
X1663577Y409584D01*
Y409676D01*
Y409778D01*
X1663587Y409898D01*
Y410018D01*
Y410157D01*
X1663577Y410148D01*
X1663559Y410129D01*
X1663531Y410102D01*
X1663494Y410065D01*
X1663448Y410018D01*
X1663383Y409963D01*
X1663309Y409907D01*
X1663235Y409852D01*
X1663041Y409741D01*
X1662829Y409639D01*
X1662708Y409602D01*
X1662579Y409575D01*
X1662440Y409556D01*
X1662301Y409547D01*
X1662255D01*
X1662209Y409556D01*
X1662144D01*
X1662061Y409565D01*
X1661969Y409584D01*
X1661867Y409602D01*
X1661756Y409630D01*
X1661636Y409667D01*
X1661516Y409713D01*
X1661395Y409769D01*
X1661266Y409833D01*
X1661146Y409917D01*
X1661026Y410009D01*
X1660915Y410111D01*
X1660813Y410231D01*
X1660804Y410240D01*
X1660794Y410259D01*
X1660767Y410305D01*
X1660730Y410351D01*
X1660693Y410425D01*
X1660647Y410499D01*
X1660600Y410592D01*
X1660554Y410703D01*
X1660508Y410813D01*
X1660462Y410943D01*
X1660415Y411072D01*
X1660378Y411220D01*
X1660314Y411535D01*
X1660304Y411710D01*
X1660295Y411886D01*
Y411895D01*
Y411914D01*
Y411951D01*
Y411997D01*
X1660304Y412062D01*
Y412126D01*
X1660323Y412293D01*
X1660351Y412478D01*
X1660397Y412681D01*
X1660452Y412894D01*
X1660536Y413106D01*
Y413116D01*
X1660545Y413134D01*
X1660563Y413162D01*
X1660582Y413199D01*
X1660637Y413301D01*
X1660711Y413430D01*
X1660813Y413569D01*
X1660933Y413707D01*
X1661072Y413855D01*
X1661229Y413975D01*
X1661238D01*
X1661248Y413985D01*
X1661275Y414003D01*
X1661312Y414022D01*
X1661405Y414077D01*
X1661534Y414133D01*
X1661691Y414188D01*
X1661876Y414244D01*
X1662080Y414281D01*
X1662301Y414290D01*
X1662385D01*
X1662440Y414281D01*
D02*
G37*
G36*
X1600332Y406926D02*
X1600397D01*
X1600572Y406908D01*
X1600766Y406880D01*
X1600970Y406834D01*
X1601192Y406778D01*
X1601395Y406704D01*
X1601405D01*
X1601423Y406695D01*
X1601451Y406676D01*
X1601488Y406658D01*
X1601580Y406612D01*
X1601700Y406529D01*
X1601839Y406436D01*
X1601978Y406316D01*
X1602107Y406177D01*
X1602227Y406020D01*
Y406011D01*
X1602237Y406002D01*
X1602255Y405974D01*
X1602274Y405946D01*
X1602320Y405854D01*
X1602375Y405733D01*
X1602440Y405585D01*
X1602486Y405410D01*
X1602532Y405225D01*
X1602551Y405022D01*
X1601737Y404957D01*
Y404966D01*
Y404985D01*
X1601728Y405012D01*
X1601719Y405058D01*
X1601691Y405160D01*
X1601654Y405299D01*
X1601599Y405447D01*
X1601515Y405595D01*
X1601414Y405733D01*
X1601284Y405863D01*
X1601266Y405872D01*
X1601220Y405909D01*
X1601127Y405965D01*
X1601007Y406020D01*
X1600850Y406076D01*
X1600665Y406131D01*
X1600434Y406168D01*
X1600175Y406177D01*
X1600045D01*
X1599990Y406168D01*
X1599916Y406159D01*
X1599749Y406140D01*
X1599565Y406103D01*
X1599380Y406057D01*
X1599204Y405983D01*
X1599130Y405937D01*
X1599056Y405891D01*
X1599038Y405881D01*
X1599001Y405844D01*
X1598945Y405780D01*
X1598890Y405706D01*
X1598825Y405604D01*
X1598770Y405493D01*
X1598732Y405364D01*
X1598714Y405216D01*
Y405197D01*
Y405160D01*
X1598723Y405095D01*
X1598742Y405022D01*
X1598770Y404929D01*
X1598816Y404837D01*
X1598871Y404744D01*
X1598954Y404652D01*
X1598964Y404642D01*
X1599010Y404615D01*
X1599047Y404587D01*
X1599084Y404568D01*
X1599139Y404541D01*
X1599204Y404504D01*
X1599287Y404476D01*
X1599380Y404439D01*
X1599481Y404402D01*
X1599602Y404356D01*
X1599731Y404319D01*
X1599879Y404273D01*
X1600045Y404236D01*
X1600230Y404189D01*
X1600240D01*
X1600276Y404180D01*
X1600332Y404171D01*
X1600397Y404152D01*
X1600480Y404134D01*
X1600582Y404106D01*
X1600683Y404078D01*
X1600794Y404051D01*
X1601035Y403986D01*
X1601266Y403921D01*
X1601377Y403884D01*
X1601478Y403847D01*
X1601571Y403820D01*
X1601645Y403783D01*
X1601654D01*
X1601673Y403773D01*
X1601700Y403755D01*
X1601737Y403736D01*
X1601839Y403681D01*
X1601959Y403607D01*
X1602098Y403505D01*
X1602237Y403394D01*
X1602366Y403265D01*
X1602477Y403126D01*
X1602486Y403108D01*
X1602523Y403061D01*
X1602560Y402978D01*
X1602616Y402867D01*
X1602662Y402738D01*
X1602708Y402581D01*
X1602736Y402405D01*
X1602745Y402220D01*
Y402211D01*
Y402202D01*
Y402174D01*
Y402137D01*
X1602727Y402035D01*
X1602708Y401906D01*
X1602671Y401758D01*
X1602625Y401601D01*
X1602551Y401434D01*
X1602449Y401259D01*
Y401249D01*
X1602440Y401240D01*
X1602394Y401185D01*
X1602329Y401101D01*
X1602237Y401009D01*
X1602116Y400898D01*
X1601968Y400778D01*
X1601802Y400667D01*
X1601608Y400565D01*
X1601599D01*
X1601580Y400556D01*
X1601552Y400547D01*
X1601515Y400528D01*
X1601460Y400510D01*
X1601395Y400482D01*
X1601247Y400445D01*
X1601072Y400399D01*
X1600859Y400352D01*
X1600628Y400325D01*
X1600378Y400316D01*
X1600230D01*
X1600156Y400325D01*
X1600073D01*
X1599981Y400334D01*
X1599870Y400343D01*
X1599639Y400380D01*
X1599398Y400417D01*
X1599158Y400482D01*
X1598927Y400565D01*
X1598917D01*
X1598899Y400574D01*
X1598871Y400593D01*
X1598834Y400611D01*
X1598723Y400667D01*
X1598594Y400750D01*
X1598446Y400861D01*
X1598289Y400990D01*
X1598141Y401148D01*
X1598002Y401323D01*
Y401333D01*
X1597984Y401351D01*
X1597974Y401379D01*
X1597947Y401416D01*
X1597928Y401462D01*
X1597900Y401517D01*
X1597836Y401656D01*
X1597771Y401832D01*
X1597715Y402026D01*
X1597679Y402248D01*
X1597660Y402479D01*
X1598455Y402553D01*
Y402544D01*
Y402534D01*
X1598464Y402507D01*
Y402470D01*
X1598483Y402387D01*
X1598511Y402266D01*
X1598548Y402146D01*
X1598585Y402007D01*
X1598649Y401878D01*
X1598714Y401758D01*
X1598723Y401749D01*
X1598751Y401712D01*
X1598797Y401647D01*
X1598871Y401582D01*
X1598964Y401499D01*
X1599065Y401416D01*
X1599204Y401333D01*
X1599352Y401259D01*
X1599361D01*
X1599370Y401249D01*
X1599398Y401240D01*
X1599426Y401231D01*
X1599518Y401203D01*
X1599639Y401166D01*
X1599787Y401129D01*
X1599953Y401101D01*
X1600138Y401083D01*
X1600341Y401074D01*
X1600424D01*
X1600517Y401083D01*
X1600628Y401092D01*
X1600757Y401111D01*
X1600905Y401129D01*
X1601053Y401166D01*
X1601192Y401212D01*
X1601210Y401222D01*
X1601257Y401240D01*
X1601321Y401277D01*
X1601405Y401314D01*
X1601488Y401379D01*
X1601580Y401443D01*
X1601673Y401517D01*
X1601747Y401610D01*
X1601756Y401619D01*
X1601774Y401656D01*
X1601802Y401702D01*
X1601839Y401776D01*
X1601876Y401850D01*
X1601904Y401943D01*
X1601922Y402044D01*
X1601931Y402155D01*
Y402165D01*
Y402211D01*
X1601922Y402266D01*
X1601913Y402340D01*
X1601885Y402414D01*
X1601857Y402507D01*
X1601811Y402599D01*
X1601747Y402682D01*
X1601737Y402692D01*
X1601710Y402719D01*
X1601673Y402756D01*
X1601608Y402812D01*
X1601534Y402867D01*
X1601432Y402932D01*
X1601312Y402997D01*
X1601173Y403052D01*
X1601164Y403061D01*
X1601118Y403071D01*
X1601044Y403098D01*
X1600998Y403108D01*
X1600933Y403126D01*
X1600868Y403154D01*
X1600785Y403172D01*
X1600693Y403200D01*
X1600582Y403228D01*
X1600471Y403256D01*
X1600341Y403293D01*
X1600193Y403330D01*
X1600036Y403367D01*
X1600027D01*
X1599999Y403376D01*
X1599953Y403385D01*
X1599897Y403404D01*
X1599823Y403422D01*
X1599740Y403441D01*
X1599555Y403496D01*
X1599352Y403561D01*
X1599139Y403625D01*
X1598954Y403690D01*
X1598871Y403727D01*
X1598797Y403764D01*
X1598788D01*
X1598779Y403773D01*
X1598723Y403810D01*
X1598640Y403857D01*
X1598548Y403931D01*
X1598437Y404014D01*
X1598326Y404115D01*
X1598215Y404236D01*
X1598122Y404365D01*
X1598113Y404384D01*
X1598085Y404430D01*
X1598048Y404504D01*
X1598011Y404596D01*
X1597974Y404716D01*
X1597937Y404855D01*
X1597910Y405003D01*
X1597900Y405160D01*
Y405169D01*
Y405179D01*
Y405206D01*
Y405243D01*
X1597919Y405336D01*
X1597937Y405456D01*
X1597965Y405595D01*
X1598011Y405752D01*
X1598076Y405909D01*
X1598168Y406066D01*
Y406076D01*
X1598178Y406085D01*
X1598224Y406140D01*
X1598289Y406214D01*
X1598372Y406307D01*
X1598483Y406408D01*
X1598622Y406519D01*
X1598788Y406621D01*
X1598973Y406713D01*
X1598982D01*
X1599001Y406723D01*
X1599028Y406732D01*
X1599065Y406750D01*
X1599112Y406769D01*
X1599176Y406787D01*
X1599315Y406824D01*
X1599491Y406861D01*
X1599694Y406898D01*
X1599907Y406926D01*
X1600147Y406935D01*
X1600267D01*
X1600332Y406926D01*
D02*
G37*
G36*
X1609550D02*
X1609624D01*
X1609799Y406908D01*
X1609994Y406880D01*
X1610197Y406834D01*
X1610419Y406778D01*
X1610632Y406704D01*
X1610641D01*
X1610659Y406695D01*
X1610687Y406686D01*
X1610724Y406667D01*
X1610826Y406612D01*
X1610955Y406547D01*
X1611094Y406455D01*
X1611242Y406344D01*
X1611380Y406223D01*
X1611510Y406076D01*
X1611528Y406057D01*
X1611565Y406002D01*
X1611621Y405918D01*
X1611695Y405798D01*
X1611769Y405650D01*
X1611852Y405465D01*
X1611935Y405262D01*
X1612000Y405031D01*
X1611232Y404827D01*
Y404837D01*
X1611223Y404846D01*
X1611214Y404874D01*
X1611205Y404911D01*
X1611177Y404994D01*
X1611140Y405105D01*
X1611085Y405234D01*
X1611020Y405354D01*
X1610955Y405484D01*
X1610872Y405595D01*
X1610863Y405604D01*
X1610835Y405641D01*
X1610780Y405687D01*
X1610715Y405752D01*
X1610632Y405826D01*
X1610521Y405900D01*
X1610400Y405974D01*
X1610262Y406039D01*
X1610243Y406048D01*
X1610197Y406066D01*
X1610114Y406094D01*
X1610003Y406131D01*
X1609873Y406159D01*
X1609725Y406186D01*
X1609559Y406205D01*
X1609383Y406214D01*
X1609282D01*
X1609236Y406205D01*
X1609180D01*
X1609041Y406196D01*
X1608884Y406168D01*
X1608708Y406140D01*
X1608542Y406094D01*
X1608376Y406029D01*
X1608357Y406020D01*
X1608302Y406002D01*
X1608228Y405955D01*
X1608135Y405909D01*
X1608024Y405835D01*
X1607904Y405761D01*
X1607793Y405669D01*
X1607691Y405567D01*
X1607682Y405558D01*
X1607645Y405521D01*
X1607599Y405456D01*
X1607543Y405382D01*
X1607479Y405290D01*
X1607414Y405179D01*
X1607349Y405058D01*
X1607285Y404929D01*
Y404920D01*
X1607275Y404901D01*
X1607266Y404874D01*
X1607248Y404827D01*
X1607229Y404772D01*
X1607211Y404707D01*
X1607183Y404633D01*
X1607164Y404550D01*
X1607118Y404356D01*
X1607081Y404134D01*
X1607054Y403903D01*
X1607044Y403644D01*
Y403635D01*
Y403607D01*
Y403561D01*
X1607054Y403505D01*
Y403431D01*
X1607063Y403339D01*
X1607072Y403246D01*
X1607081Y403145D01*
X1607118Y402914D01*
X1607164Y402673D01*
X1607238Y402433D01*
X1607331Y402202D01*
Y402192D01*
X1607349Y402174D01*
X1607359Y402146D01*
X1607386Y402109D01*
X1607451Y402007D01*
X1607553Y401878D01*
X1607673Y401739D01*
X1607821Y401601D01*
X1607997Y401471D01*
X1608191Y401351D01*
X1608200D01*
X1608219Y401342D01*
X1608246Y401323D01*
X1608292Y401305D01*
X1608339Y401286D01*
X1608403Y401268D01*
X1608551Y401212D01*
X1608736Y401166D01*
X1608940Y401120D01*
X1609162Y401083D01*
X1609393Y401074D01*
X1609485D01*
X1609541Y401083D01*
X1609596D01*
X1609735Y401101D01*
X1609901Y401120D01*
X1610077Y401157D01*
X1610271Y401212D01*
X1610465Y401277D01*
X1610474D01*
X1610493Y401286D01*
X1610511Y401296D01*
X1610548Y401314D01*
X1610650Y401360D01*
X1610761Y401416D01*
X1610891Y401480D01*
X1611029Y401554D01*
X1611159Y401638D01*
X1611270Y401730D01*
Y402932D01*
X1609383D01*
Y403690D01*
X1612102D01*
Y401314D01*
X1612092Y401305D01*
X1612074Y401296D01*
X1612037Y401268D01*
X1611991Y401231D01*
X1611935Y401194D01*
X1611871Y401148D01*
X1611787Y401092D01*
X1611704Y401037D01*
X1611510Y400916D01*
X1611288Y400787D01*
X1611057Y400667D01*
X1610807Y400565D01*
X1610798D01*
X1610780Y400556D01*
X1610742Y400547D01*
X1610696Y400528D01*
X1610632Y400510D01*
X1610558Y400482D01*
X1610474Y400463D01*
X1610391Y400445D01*
X1610188Y400399D01*
X1609957Y400352D01*
X1609707Y400325D01*
X1609448Y400316D01*
X1609356D01*
X1609291Y400325D01*
X1609208D01*
X1609106Y400334D01*
X1608995Y400352D01*
X1608875Y400362D01*
X1608607Y400417D01*
X1608320Y400482D01*
X1608024Y400584D01*
X1607876Y400639D01*
X1607728Y400713D01*
X1607719Y400722D01*
X1607691Y400732D01*
X1607655Y400759D01*
X1607599Y400787D01*
X1607534Y400833D01*
X1607470Y400879D01*
X1607294Y401009D01*
X1607109Y401175D01*
X1606915Y401379D01*
X1606730Y401610D01*
X1606564Y401878D01*
Y401887D01*
X1606545Y401915D01*
X1606526Y401952D01*
X1606499Y402017D01*
X1606471Y402081D01*
X1606443Y402174D01*
X1606406Y402266D01*
X1606369Y402377D01*
X1606332Y402497D01*
X1606295Y402636D01*
X1606268Y402775D01*
X1606240Y402923D01*
X1606194Y403246D01*
X1606175Y403588D01*
Y403598D01*
Y403635D01*
Y403681D01*
X1606184Y403746D01*
Y403829D01*
X1606194Y403931D01*
X1606212Y404032D01*
X1606221Y404152D01*
X1606249Y404282D01*
X1606268Y404421D01*
X1606342Y404716D01*
X1606434Y405022D01*
X1606564Y405327D01*
X1606573Y405336D01*
X1606582Y405364D01*
X1606600Y405401D01*
X1606638Y405456D01*
X1606674Y405530D01*
X1606721Y405604D01*
X1606850Y405780D01*
X1607007Y405983D01*
X1607202Y406177D01*
X1607423Y406371D01*
X1607553Y406455D01*
X1607682Y406538D01*
X1607691Y406547D01*
X1607719Y406556D01*
X1607756Y406575D01*
X1607812Y406603D01*
X1607886Y406630D01*
X1607969Y406667D01*
X1608061Y406704D01*
X1608172Y406741D01*
X1608292Y406778D01*
X1608422Y406806D01*
X1608561Y406843D01*
X1608708Y406871D01*
X1609032Y406917D01*
X1609198Y406935D01*
X1609494D01*
X1609550Y406926D01*
D02*
G37*
G36*
X1604899Y400426D02*
X1604049D01*
Y406824D01*
X1604899D01*
Y400426D01*
D02*
G37*
G36*
X1601035Y419361D02*
X1601109D01*
X1601284Y419342D01*
X1601478Y419314D01*
X1601682Y419268D01*
X1601904Y419213D01*
X1602116Y419139D01*
X1602126D01*
X1602144Y419129D01*
X1602172Y419120D01*
X1602209Y419102D01*
X1602310Y419046D01*
X1602440Y418982D01*
X1602579Y418889D01*
X1602727Y418778D01*
X1602865Y418658D01*
X1602995Y418510D01*
X1603013Y418492D01*
X1603050Y418436D01*
X1603106Y418353D01*
X1603180Y418233D01*
X1603254Y418085D01*
X1603337Y417900D01*
X1603420Y417696D01*
X1603485Y417465D01*
X1602717Y417262D01*
Y417271D01*
X1602708Y417280D01*
X1602699Y417308D01*
X1602690Y417345D01*
X1602662Y417428D01*
X1602625Y417539D01*
X1602569Y417669D01*
X1602505Y417789D01*
X1602440Y417918D01*
X1602357Y418029D01*
X1602348Y418038D01*
X1602320Y418075D01*
X1602264Y418122D01*
X1602200Y418186D01*
X1602116Y418260D01*
X1602005Y418334D01*
X1601885Y418408D01*
X1601747Y418473D01*
X1601728Y418482D01*
X1601682Y418501D01*
X1601599Y418529D01*
X1601488Y418565D01*
X1601358Y418593D01*
X1601210Y418621D01*
X1601044Y418639D01*
X1600868Y418649D01*
X1600766D01*
X1600720Y418639D01*
X1600665D01*
X1600526Y418630D01*
X1600369Y418602D01*
X1600193Y418575D01*
X1600027Y418529D01*
X1599861Y418464D01*
X1599842Y418455D01*
X1599787Y418436D01*
X1599713Y418390D01*
X1599620Y418344D01*
X1599509Y418270D01*
X1599389Y418196D01*
X1599278Y418103D01*
X1599176Y418002D01*
X1599167Y417992D01*
X1599130Y417955D01*
X1599084Y417891D01*
X1599028Y417817D01*
X1598964Y417724D01*
X1598899Y417613D01*
X1598834Y417493D01*
X1598770Y417364D01*
Y417354D01*
X1598760Y417336D01*
X1598751Y417308D01*
X1598732Y417262D01*
X1598714Y417206D01*
X1598696Y417142D01*
X1598668Y417068D01*
X1598649Y416984D01*
X1598603Y416790D01*
X1598566Y416568D01*
X1598538Y416337D01*
X1598529Y416078D01*
Y416069D01*
Y416041D01*
Y415995D01*
X1598538Y415940D01*
Y415866D01*
X1598548Y415773D01*
X1598557Y415681D01*
X1598566Y415579D01*
X1598603Y415348D01*
X1598649Y415108D01*
X1598723Y414867D01*
X1598816Y414636D01*
Y414627D01*
X1598834Y414608D01*
X1598843Y414581D01*
X1598871Y414544D01*
X1598936Y414442D01*
X1599038Y414313D01*
X1599158Y414174D01*
X1599306Y414035D01*
X1599481Y413906D01*
X1599675Y413786D01*
X1599685D01*
X1599703Y413776D01*
X1599731Y413758D01*
X1599777Y413739D01*
X1599823Y413721D01*
X1599888Y413702D01*
X1600036Y413647D01*
X1600221Y413601D01*
X1600424Y413554D01*
X1600646Y413517D01*
X1600878Y413508D01*
X1600970D01*
X1601025Y413517D01*
X1601081D01*
X1601220Y413536D01*
X1601386Y413554D01*
X1601562Y413591D01*
X1601756Y413647D01*
X1601950Y413712D01*
X1601959D01*
X1601978Y413721D01*
X1601996Y413730D01*
X1602033Y413749D01*
X1602135Y413795D01*
X1602246Y413850D01*
X1602375Y413915D01*
X1602514Y413989D01*
X1602643Y414072D01*
X1602754Y414165D01*
Y415367D01*
X1600868D01*
Y416125D01*
X1603586D01*
Y413749D01*
X1603577Y413739D01*
X1603559Y413730D01*
X1603522Y413702D01*
X1603475Y413665D01*
X1603420Y413628D01*
X1603355Y413582D01*
X1603272Y413527D01*
X1603189Y413471D01*
X1602995Y413351D01*
X1602773Y413222D01*
X1602542Y413101D01*
X1602292Y413000D01*
X1602283D01*
X1602264Y412990D01*
X1602227Y412981D01*
X1602181Y412963D01*
X1602116Y412944D01*
X1602042Y412916D01*
X1601959Y412898D01*
X1601876Y412879D01*
X1601673Y412833D01*
X1601441Y412787D01*
X1601192Y412759D01*
X1600933Y412750D01*
X1600840D01*
X1600776Y412759D01*
X1600693D01*
X1600591Y412769D01*
X1600480Y412787D01*
X1600360Y412796D01*
X1600092Y412852D01*
X1599805Y412916D01*
X1599509Y413018D01*
X1599361Y413074D01*
X1599213Y413148D01*
X1599204Y413157D01*
X1599176Y413166D01*
X1599139Y413194D01*
X1599084Y413222D01*
X1599019Y413268D01*
X1598954Y413314D01*
X1598779Y413443D01*
X1598594Y413610D01*
X1598400Y413813D01*
X1598215Y414044D01*
X1598048Y414313D01*
Y414322D01*
X1598030Y414350D01*
X1598011Y414386D01*
X1597984Y414451D01*
X1597956Y414516D01*
X1597928Y414608D01*
X1597891Y414701D01*
X1597854Y414812D01*
X1597817Y414932D01*
X1597780Y415071D01*
X1597753Y415209D01*
X1597725Y415357D01*
X1597679Y415681D01*
X1597660Y416023D01*
Y416032D01*
Y416069D01*
Y416115D01*
X1597669Y416180D01*
Y416263D01*
X1597679Y416365D01*
X1597697Y416467D01*
X1597706Y416587D01*
X1597734Y416716D01*
X1597753Y416855D01*
X1597826Y417151D01*
X1597919Y417456D01*
X1598048Y417761D01*
X1598058Y417770D01*
X1598067Y417798D01*
X1598085Y417835D01*
X1598122Y417891D01*
X1598159Y417965D01*
X1598206Y418038D01*
X1598335Y418214D01*
X1598492Y418418D01*
X1598686Y418612D01*
X1598908Y418806D01*
X1599038Y418889D01*
X1599167Y418972D01*
X1599176Y418982D01*
X1599204Y418991D01*
X1599241Y419009D01*
X1599297Y419037D01*
X1599370Y419065D01*
X1599454Y419102D01*
X1599546Y419139D01*
X1599657Y419176D01*
X1599777Y419213D01*
X1599907Y419240D01*
X1600045Y419277D01*
X1600193Y419305D01*
X1600517Y419351D01*
X1600683Y419370D01*
X1600979D01*
X1601035Y419361D01*
D02*
G37*
G36*
X1609864Y412861D02*
X1608986D01*
X1605639Y417881D01*
Y412861D01*
X1604825D01*
Y419259D01*
X1605694D01*
X1609051Y414229D01*
Y419259D01*
X1609864D01*
Y412861D01*
D02*
G37*
G36*
X1613914Y419250D02*
X1614099Y419240D01*
X1614284Y419222D01*
X1614469Y419194D01*
X1614626Y419166D01*
X1614635D01*
X1614653Y419157D01*
X1614681D01*
X1614718Y419139D01*
X1614820Y419111D01*
X1614949Y419065D01*
X1615097Y419000D01*
X1615254Y418917D01*
X1615412Y418824D01*
X1615560Y418704D01*
X1615569Y418695D01*
X1615578Y418686D01*
X1615606Y418658D01*
X1615643Y418630D01*
X1615735Y418538D01*
X1615846Y418408D01*
X1615966Y418251D01*
X1616096Y418066D01*
X1616216Y417854D01*
X1616318Y417613D01*
Y417604D01*
X1616327Y417585D01*
X1616345Y417548D01*
X1616355Y417493D01*
X1616382Y417428D01*
X1616401Y417354D01*
X1616419Y417271D01*
X1616447Y417169D01*
X1616475Y417068D01*
X1616493Y416948D01*
X1616539Y416689D01*
X1616567Y416402D01*
X1616577Y416088D01*
Y416078D01*
Y416060D01*
Y416014D01*
Y415967D01*
X1616567Y415903D01*
Y415829D01*
X1616558Y415653D01*
X1616530Y415450D01*
X1616503Y415237D01*
X1616456Y415015D01*
X1616401Y414793D01*
Y414784D01*
X1616392Y414766D01*
X1616382Y414738D01*
X1616373Y414701D01*
X1616336Y414599D01*
X1616281Y414470D01*
X1616225Y414322D01*
X1616151Y414174D01*
X1616059Y414017D01*
X1615966Y413869D01*
X1615957Y413850D01*
X1615920Y413804D01*
X1615865Y413739D01*
X1615791Y413656D01*
X1615707Y413564D01*
X1615606Y413471D01*
X1615504Y413369D01*
X1615384Y413286D01*
X1615365Y413277D01*
X1615328Y413249D01*
X1615264Y413212D01*
X1615171Y413166D01*
X1615060Y413111D01*
X1614931Y413064D01*
X1614783Y413009D01*
X1614616Y412963D01*
X1614598D01*
X1614570Y412953D01*
X1614543Y412944D01*
X1614450Y412935D01*
X1614321Y412916D01*
X1614173Y412898D01*
X1613997Y412879D01*
X1613803Y412870D01*
X1613590Y412861D01*
X1611288D01*
Y419259D01*
X1613747D01*
X1613914Y419250D01*
D02*
G37*
G36*
X1607312Y432095D02*
X1607433Y432076D01*
X1607581Y432049D01*
X1607747Y432002D01*
X1607913Y431947D01*
X1608080Y431873D01*
X1608089D01*
X1608098Y431864D01*
X1608154Y431836D01*
X1608237Y431781D01*
X1608329Y431716D01*
X1608440Y431623D01*
X1608551Y431522D01*
X1608662Y431401D01*
X1608755Y431263D01*
X1608764Y431244D01*
X1608792Y431198D01*
X1608829Y431115D01*
X1608875Y431013D01*
X1608921Y430893D01*
X1608958Y430754D01*
X1608986Y430597D01*
X1608995Y430440D01*
Y430421D01*
Y430366D01*
X1608986Y430292D01*
X1608967Y430190D01*
X1608940Y430070D01*
X1608893Y429941D01*
X1608838Y429811D01*
X1608764Y429682D01*
X1608755Y429663D01*
X1608727Y429626D01*
X1608672Y429562D01*
X1608598Y429488D01*
X1608505Y429404D01*
X1608394Y429312D01*
X1608265Y429229D01*
X1608107Y429146D01*
X1608117D01*
X1608135Y429136D01*
X1608163Y429127D01*
X1608200Y429118D01*
X1608302Y429081D01*
X1608431Y429025D01*
X1608579Y428951D01*
X1608727Y428859D01*
X1608866Y428739D01*
X1608995Y428600D01*
X1609004Y428582D01*
X1609041Y428526D01*
X1609097Y428434D01*
X1609152Y428313D01*
X1609208Y428166D01*
X1609263Y427990D01*
X1609300Y427786D01*
X1609310Y427565D01*
Y427555D01*
Y427528D01*
Y427481D01*
X1609300Y427426D01*
X1609291Y427352D01*
X1609272Y427269D01*
X1609254Y427176D01*
X1609236Y427075D01*
X1609162Y426853D01*
X1609106Y426732D01*
X1609051Y426622D01*
X1608977Y426501D01*
X1608893Y426381D01*
X1608801Y426261D01*
X1608690Y426150D01*
X1608681Y426141D01*
X1608662Y426122D01*
X1608625Y426095D01*
X1608579Y426058D01*
X1608524Y426011D01*
X1608450Y425965D01*
X1608366Y425910D01*
X1608265Y425863D01*
X1608163Y425808D01*
X1608043Y425752D01*
X1607923Y425706D01*
X1607784Y425660D01*
X1607636Y425623D01*
X1607479Y425595D01*
X1607322Y425577D01*
X1607146Y425568D01*
X1607063D01*
X1607007Y425577D01*
X1606933Y425586D01*
X1606850Y425595D01*
X1606758Y425614D01*
X1606656Y425632D01*
X1606434Y425688D01*
X1606203Y425780D01*
X1606083Y425836D01*
X1605972Y425900D01*
X1605861Y425984D01*
X1605750Y426067D01*
X1605741Y426076D01*
X1605722Y426095D01*
X1605694Y426122D01*
X1605667Y426159D01*
X1605621Y426205D01*
X1605574Y426270D01*
X1605519Y426335D01*
X1605463Y426418D01*
X1605408Y426511D01*
X1605352Y426603D01*
X1605251Y426825D01*
X1605167Y427084D01*
X1605140Y427222D01*
X1605121Y427370D01*
X1605907Y427472D01*
Y427463D01*
X1605916Y427444D01*
X1605926Y427407D01*
X1605935Y427361D01*
X1605944Y427306D01*
X1605963Y427241D01*
X1606009Y427102D01*
X1606073Y426936D01*
X1606157Y426779D01*
X1606249Y426631D01*
X1606360Y426501D01*
X1606379Y426492D01*
X1606416Y426455D01*
X1606490Y426409D01*
X1606582Y426363D01*
X1606693Y426307D01*
X1606832Y426261D01*
X1606989Y426224D01*
X1607155Y426215D01*
X1607211D01*
X1607248Y426224D01*
X1607349Y426233D01*
X1607479Y426261D01*
X1607627Y426307D01*
X1607784Y426372D01*
X1607941Y426464D01*
X1608089Y426594D01*
X1608107Y426612D01*
X1608154Y426668D01*
X1608209Y426751D01*
X1608283Y426862D01*
X1608357Y427001D01*
X1608413Y427158D01*
X1608459Y427343D01*
X1608477Y427546D01*
Y427555D01*
Y427574D01*
Y427602D01*
X1608468Y427639D01*
X1608459Y427740D01*
X1608431Y427860D01*
X1608394Y428008D01*
X1608329Y428156D01*
X1608237Y428304D01*
X1608117Y428443D01*
X1608098Y428461D01*
X1608052Y428498D01*
X1607978Y428554D01*
X1607876Y428619D01*
X1607747Y428683D01*
X1607590Y428739D01*
X1607414Y428776D01*
X1607220Y428794D01*
X1607137D01*
X1607072Y428785D01*
X1606989Y428776D01*
X1606896Y428757D01*
X1606785Y428739D01*
X1606665Y428711D01*
X1606758Y429404D01*
X1606804D01*
X1606841Y429395D01*
X1606961D01*
X1607063Y429414D01*
X1607183Y429432D01*
X1607322Y429460D01*
X1607479Y429506D01*
X1607627Y429571D01*
X1607784Y429654D01*
X1607793D01*
X1607802Y429663D01*
X1607849Y429700D01*
X1607913Y429765D01*
X1607987Y429848D01*
X1608061Y429968D01*
X1608126Y430107D01*
X1608172Y430264D01*
X1608191Y430357D01*
Y430458D01*
Y430468D01*
Y430477D01*
Y430532D01*
X1608172Y430606D01*
X1608154Y430708D01*
X1608117Y430819D01*
X1608071Y430939D01*
X1607997Y431059D01*
X1607895Y431170D01*
X1607886Y431180D01*
X1607839Y431217D01*
X1607775Y431263D01*
X1607691Y431318D01*
X1607581Y431365D01*
X1607451Y431411D01*
X1607303Y431448D01*
X1607137Y431457D01*
X1607063D01*
X1606980Y431438D01*
X1606869Y431420D01*
X1606748Y431383D01*
X1606628Y431337D01*
X1606499Y431263D01*
X1606379Y431170D01*
X1606369Y431161D01*
X1606332Y431115D01*
X1606277Y431050D01*
X1606212Y430958D01*
X1606147Y430838D01*
X1606083Y430690D01*
X1606027Y430514D01*
X1605990Y430311D01*
X1605204Y430449D01*
Y430458D01*
X1605214Y430486D01*
X1605223Y430523D01*
X1605232Y430579D01*
X1605251Y430643D01*
X1605278Y430717D01*
X1605334Y430893D01*
X1605426Y431096D01*
X1605537Y431300D01*
X1605676Y431494D01*
X1605852Y431670D01*
X1605861Y431679D01*
X1605879Y431688D01*
X1605907Y431707D01*
X1605944Y431734D01*
X1605990Y431771D01*
X1606055Y431808D01*
X1606120Y431845D01*
X1606203Y431892D01*
X1606388Y431965D01*
X1606600Y432039D01*
X1606850Y432086D01*
X1606980Y432104D01*
X1607211D01*
X1607312Y432095D01*
D02*
G37*
G36*
X1599851D02*
X1599971Y432076D01*
X1600119Y432049D01*
X1600286Y432002D01*
X1600452Y431947D01*
X1600619Y431873D01*
X1600628D01*
X1600637Y431864D01*
X1600693Y431836D01*
X1600776Y431781D01*
X1600868Y431716D01*
X1600979Y431623D01*
X1601090Y431522D01*
X1601201Y431401D01*
X1601293Y431263D01*
X1601303Y431244D01*
X1601331Y431198D01*
X1601367Y431115D01*
X1601414Y431013D01*
X1601460Y430893D01*
X1601497Y430754D01*
X1601525Y430597D01*
X1601534Y430440D01*
Y430421D01*
Y430366D01*
X1601525Y430292D01*
X1601506Y430190D01*
X1601478Y430070D01*
X1601432Y429941D01*
X1601377Y429811D01*
X1601303Y429682D01*
X1601293Y429663D01*
X1601266Y429626D01*
X1601210Y429562D01*
X1601136Y429488D01*
X1601044Y429404D01*
X1600933Y429312D01*
X1600804Y429229D01*
X1600646Y429146D01*
X1600656D01*
X1600674Y429136D01*
X1600702Y429127D01*
X1600739Y429118D01*
X1600840Y429081D01*
X1600970Y429025D01*
X1601118Y428951D01*
X1601266Y428859D01*
X1601405Y428739D01*
X1601534Y428600D01*
X1601543Y428582D01*
X1601580Y428526D01*
X1601636Y428434D01*
X1601691Y428313D01*
X1601747Y428166D01*
X1601802Y427990D01*
X1601839Y427786D01*
X1601848Y427565D01*
Y427555D01*
Y427528D01*
Y427481D01*
X1601839Y427426D01*
X1601830Y427352D01*
X1601811Y427269D01*
X1601793Y427176D01*
X1601774Y427075D01*
X1601700Y426853D01*
X1601645Y426732D01*
X1601589Y426622D01*
X1601515Y426501D01*
X1601432Y426381D01*
X1601340Y426261D01*
X1601229Y426150D01*
X1601220Y426141D01*
X1601201Y426122D01*
X1601164Y426095D01*
X1601118Y426058D01*
X1601062Y426011D01*
X1600988Y425965D01*
X1600905Y425910D01*
X1600804Y425863D01*
X1600702Y425808D01*
X1600582Y425752D01*
X1600461Y425706D01*
X1600323Y425660D01*
X1600175Y425623D01*
X1600018Y425595D01*
X1599861Y425577D01*
X1599685Y425568D01*
X1599602D01*
X1599546Y425577D01*
X1599472Y425586D01*
X1599389Y425595D01*
X1599297Y425614D01*
X1599195Y425632D01*
X1598973Y425688D01*
X1598742Y425780D01*
X1598622Y425836D01*
X1598511Y425900D01*
X1598400Y425984D01*
X1598289Y426067D01*
X1598280Y426076D01*
X1598261Y426095D01*
X1598233Y426122D01*
X1598206Y426159D01*
X1598159Y426205D01*
X1598113Y426270D01*
X1598058Y426335D01*
X1598002Y426418D01*
X1597947Y426511D01*
X1597891Y426603D01*
X1597789Y426825D01*
X1597706Y427084D01*
X1597679Y427222D01*
X1597660Y427370D01*
X1598446Y427472D01*
Y427463D01*
X1598455Y427444D01*
X1598464Y427407D01*
X1598474Y427361D01*
X1598483Y427306D01*
X1598501Y427241D01*
X1598548Y427102D01*
X1598612Y426936D01*
X1598696Y426779D01*
X1598788Y426631D01*
X1598899Y426501D01*
X1598917Y426492D01*
X1598954Y426455D01*
X1599028Y426409D01*
X1599121Y426363D01*
X1599232Y426307D01*
X1599370Y426261D01*
X1599528Y426224D01*
X1599694Y426215D01*
X1599749D01*
X1599787Y426224D01*
X1599888Y426233D01*
X1600018Y426261D01*
X1600166Y426307D01*
X1600323Y426372D01*
X1600480Y426464D01*
X1600628Y426594D01*
X1600646Y426612D01*
X1600693Y426668D01*
X1600748Y426751D01*
X1600822Y426862D01*
X1600896Y427001D01*
X1600951Y427158D01*
X1600998Y427343D01*
X1601016Y427546D01*
Y427555D01*
Y427574D01*
Y427602D01*
X1601007Y427639D01*
X1600998Y427740D01*
X1600970Y427860D01*
X1600933Y428008D01*
X1600868Y428156D01*
X1600776Y428304D01*
X1600656Y428443D01*
X1600637Y428461D01*
X1600591Y428498D01*
X1600517Y428554D01*
X1600415Y428619D01*
X1600286Y428683D01*
X1600129Y428739D01*
X1599953Y428776D01*
X1599759Y428794D01*
X1599675D01*
X1599611Y428785D01*
X1599528Y428776D01*
X1599435Y428757D01*
X1599324Y428739D01*
X1599204Y428711D01*
X1599297Y429404D01*
X1599343D01*
X1599380Y429395D01*
X1599500D01*
X1599602Y429414D01*
X1599722Y429432D01*
X1599861Y429460D01*
X1600018Y429506D01*
X1600166Y429571D01*
X1600323Y429654D01*
X1600332D01*
X1600341Y429663D01*
X1600388Y429700D01*
X1600452Y429765D01*
X1600526Y429848D01*
X1600600Y429968D01*
X1600665Y430107D01*
X1600711Y430264D01*
X1600730Y430357D01*
Y430458D01*
Y430468D01*
Y430477D01*
Y430532D01*
X1600711Y430606D01*
X1600693Y430708D01*
X1600656Y430819D01*
X1600609Y430939D01*
X1600535Y431059D01*
X1600434Y431170D01*
X1600424Y431180D01*
X1600378Y431217D01*
X1600314Y431263D01*
X1600230Y431318D01*
X1600119Y431365D01*
X1599990Y431411D01*
X1599842Y431448D01*
X1599675Y431457D01*
X1599602D01*
X1599518Y431438D01*
X1599407Y431420D01*
X1599287Y431383D01*
X1599167Y431337D01*
X1599038Y431263D01*
X1598917Y431170D01*
X1598908Y431161D01*
X1598871Y431115D01*
X1598816Y431050D01*
X1598751Y430958D01*
X1598686Y430838D01*
X1598622Y430690D01*
X1598566Y430514D01*
X1598529Y430311D01*
X1597743Y430449D01*
Y430458D01*
X1597753Y430486D01*
X1597762Y430523D01*
X1597771Y430579D01*
X1597789Y430643D01*
X1597817Y430717D01*
X1597873Y430893D01*
X1597965Y431096D01*
X1598076Y431300D01*
X1598215Y431494D01*
X1598390Y431670D01*
X1598400Y431679D01*
X1598418Y431688D01*
X1598446Y431707D01*
X1598483Y431734D01*
X1598529Y431771D01*
X1598594Y431808D01*
X1598658Y431845D01*
X1598742Y431892D01*
X1598927Y431965D01*
X1599139Y432039D01*
X1599389Y432086D01*
X1599518Y432104D01*
X1599749D01*
X1599851Y432095D01*
D02*
G37*
G36*
X1613109Y425678D02*
X1612222D01*
X1609744Y432076D01*
X1610669D01*
X1612333Y427426D01*
Y427417D01*
X1612342Y427398D01*
X1612351Y427370D01*
X1612370Y427333D01*
X1612379Y427278D01*
X1612397Y427222D01*
X1612444Y427084D01*
X1612499Y426927D01*
X1612555Y426751D01*
X1612666Y426381D01*
Y426390D01*
X1612675Y426409D01*
X1612684Y426437D01*
X1612693Y426474D01*
X1612721Y426575D01*
X1612767Y426714D01*
X1612814Y426871D01*
X1612869Y427047D01*
X1612934Y427232D01*
X1613008Y427426D01*
X1614746Y432076D01*
X1615606D01*
X1613109Y425678D01*
D02*
G37*
G36*
X1603965D02*
X1603069D01*
Y426575D01*
X1603965D01*
Y425678D01*
D02*
G37*
%LPC*%
G36*
X1661136Y419656D02*
X1661127D01*
X1661118Y419647D01*
X1661090Y419637D01*
X1661053Y419628D01*
X1661007Y419610D01*
X1660952Y419591D01*
X1660887Y419573D01*
X1660813Y419554D01*
X1660730Y419527D01*
X1660628Y419508D01*
X1660526Y419480D01*
X1660406Y419453D01*
X1660277Y419425D01*
X1660147Y419397D01*
X1659999Y419379D01*
X1659842Y419351D01*
X1659824D01*
X1659768Y419342D01*
X1659676Y419323D01*
X1659574Y419305D01*
X1659463Y419286D01*
X1659352Y419258D01*
X1659250Y419231D01*
X1659158Y419194D01*
X1659149D01*
X1659121Y419175D01*
X1659084Y419157D01*
X1659047Y419129D01*
X1658936Y419055D01*
X1658844Y418944D01*
Y418935D01*
X1658825Y418916D01*
X1658816Y418879D01*
X1658797Y418833D01*
X1658779Y418778D01*
X1658760Y418722D01*
X1658751Y418648D01*
X1658742Y418574D01*
Y418565D01*
Y418519D01*
X1658751Y418463D01*
X1658770Y418389D01*
X1658797Y418306D01*
X1658844Y418223D01*
X1658899Y418130D01*
X1658973Y418047D01*
X1658982Y418038D01*
X1659019Y418019D01*
X1659075Y417983D01*
X1659149Y417946D01*
X1659250Y417909D01*
X1659371Y417872D01*
X1659509Y417853D01*
X1659676Y417844D01*
X1659750D01*
X1659842Y417853D01*
X1659944Y417872D01*
X1660073Y417890D01*
X1660203Y417927D01*
X1660341Y417973D01*
X1660480Y418038D01*
X1660499Y418047D01*
X1660536Y418075D01*
X1660600Y418121D01*
X1660674Y418186D01*
X1660757Y418260D01*
X1660850Y418352D01*
X1660924Y418463D01*
X1660998Y418583D01*
X1661007Y418593D01*
X1661016Y418630D01*
X1661035Y418694D01*
X1661063Y418778D01*
X1661090Y418889D01*
X1661109Y419018D01*
X1661118Y419175D01*
X1661127Y419360D01*
X1661136Y419656D01*
D02*
G37*
G36*
X1654637Y422966D02*
X1653121D01*
Y421043D01*
X1654692D01*
X1654812Y421052D01*
X1654942Y421061D01*
X1655071Y421071D01*
X1655201Y421089D01*
X1655303Y421108D01*
X1655321Y421117D01*
X1655358Y421126D01*
X1655414Y421154D01*
X1655488Y421191D01*
X1655561Y421228D01*
X1655645Y421283D01*
X1655728Y421357D01*
X1655793Y421431D01*
X1655802Y421440D01*
X1655820Y421468D01*
X1655848Y421524D01*
X1655876Y421588D01*
X1655903Y421662D01*
X1655931Y421755D01*
X1655950Y421866D01*
X1655959Y421986D01*
Y422004D01*
Y422041D01*
X1655950Y422097D01*
X1655941Y422171D01*
X1655922Y422263D01*
X1655894Y422356D01*
X1655857Y422448D01*
X1655802Y422541D01*
X1655793Y422550D01*
X1655774Y422578D01*
X1655737Y422624D01*
X1655691Y422670D01*
X1655626Y422725D01*
X1655552Y422781D01*
X1655460Y422836D01*
X1655358Y422873D01*
X1655349D01*
X1655303Y422892D01*
X1655238Y422901D01*
X1655136Y422920D01*
X1654998Y422938D01*
X1654840Y422947D01*
X1654637Y422966D01*
D02*
G37*
G36*
X1654803Y420285D02*
X1653121D01*
Y418084D01*
X1654942D01*
X1655136Y418093D01*
X1655219Y418103D01*
X1655293Y418112D01*
X1655303D01*
X1655340Y418121D01*
X1655395Y418130D01*
X1655460Y418149D01*
X1655617Y418204D01*
X1655774Y418278D01*
X1655783Y418288D01*
X1655811Y418306D01*
X1655848Y418334D01*
X1655894Y418371D01*
X1655941Y418426D01*
X1656005Y418482D01*
X1656051Y418556D01*
X1656107Y418639D01*
X1656116Y418648D01*
X1656125Y418676D01*
X1656144Y418731D01*
X1656172Y418796D01*
X1656199Y418870D01*
X1656218Y418963D01*
X1656227Y419073D01*
X1656236Y419184D01*
Y419203D01*
Y419240D01*
X1656227Y419314D01*
X1656209Y419397D01*
X1656190Y419490D01*
X1656153Y419591D01*
X1656107Y419693D01*
X1656042Y419795D01*
X1656033Y419804D01*
X1656005Y419841D01*
X1655968Y419887D01*
X1655913Y419943D01*
X1655839Y420007D01*
X1655746Y420072D01*
X1655645Y420127D01*
X1655524Y420174D01*
X1655506Y420183D01*
X1655469Y420192D01*
X1655386Y420211D01*
X1655284Y420229D01*
X1655155Y420248D01*
X1654998Y420266D01*
X1654803Y420285D01*
D02*
G37*
G36*
X1655136Y415233D02*
X1653121D01*
Y413116D01*
X1655025D01*
X1655136Y413125D01*
X1655266Y413134D01*
X1655414Y413143D01*
X1655561Y413162D01*
X1655709Y413190D01*
X1655839Y413227D01*
X1655857Y413236D01*
X1655894Y413254D01*
X1655950Y413282D01*
X1656024Y413319D01*
X1656107Y413374D01*
X1656190Y413439D01*
X1656273Y413522D01*
X1656338Y413615D01*
X1656347Y413624D01*
X1656366Y413661D01*
X1656393Y413717D01*
X1656431Y413791D01*
X1656458Y413874D01*
X1656486Y413966D01*
X1656505Y414077D01*
X1656514Y414188D01*
Y414197D01*
Y414207D01*
X1656505Y414262D01*
X1656495Y414345D01*
X1656477Y414456D01*
X1656431Y414567D01*
X1656375Y414697D01*
X1656292Y414817D01*
X1656181Y414937D01*
X1656162Y414946D01*
X1656116Y414983D01*
X1656042Y415029D01*
X1655922Y415085D01*
X1655783Y415140D01*
X1655598Y415187D01*
X1655386Y415224D01*
X1655136Y415233D01*
D02*
G37*
G36*
X1662459Y413643D02*
X1662311D01*
X1662274Y413633D01*
X1662172Y413624D01*
X1662052Y413587D01*
X1661904Y413541D01*
X1661756Y413458D01*
X1661608Y413356D01*
X1661534Y413282D01*
X1661460Y413208D01*
Y413199D01*
X1661442Y413190D01*
X1661423Y413162D01*
X1661405Y413125D01*
X1661377Y413088D01*
X1661349Y413032D01*
X1661312Y412968D01*
X1661284Y412894D01*
X1661248Y412811D01*
X1661210Y412709D01*
X1661183Y412607D01*
X1661155Y412496D01*
X1661136Y412367D01*
X1661118Y412237D01*
X1661100Y412099D01*
Y411941D01*
Y411932D01*
Y411904D01*
Y411858D01*
X1661109Y411794D01*
Y411720D01*
X1661118Y411627D01*
X1661146Y411433D01*
X1661192Y411211D01*
X1661248Y410998D01*
X1661340Y410786D01*
X1661395Y410693D01*
X1661460Y410610D01*
X1661479Y410592D01*
X1661525Y410545D01*
X1661599Y410481D01*
X1661710Y410407D01*
X1661839Y410323D01*
X1661996Y410259D01*
X1662172Y410213D01*
X1662265Y410203D01*
X1662366Y410194D01*
X1662422D01*
X1662459Y410203D01*
X1662560Y410213D01*
X1662690Y410249D01*
X1662829Y410296D01*
X1662986Y410370D01*
X1663134Y410471D01*
X1663208Y410536D01*
X1663282Y410610D01*
Y410619D01*
X1663300Y410629D01*
X1663318Y410656D01*
X1663337Y410693D01*
X1663365Y410730D01*
X1663402Y410786D01*
X1663429Y410850D01*
X1663466Y410934D01*
X1663503Y411017D01*
X1663531Y411109D01*
X1663568Y411220D01*
X1663596Y411340D01*
X1663614Y411461D01*
X1663633Y411599D01*
X1663651Y411757D01*
Y411914D01*
Y411923D01*
Y411951D01*
Y411997D01*
X1663642Y412052D01*
Y412126D01*
X1663633Y412210D01*
X1663605Y412394D01*
X1663559Y412607D01*
X1663494Y412820D01*
X1663402Y413032D01*
X1663337Y413125D01*
X1663272Y413208D01*
Y413217D01*
X1663254Y413227D01*
X1663208Y413273D01*
X1663124Y413347D01*
X1663013Y413430D01*
X1662884Y413504D01*
X1662727Y413578D01*
X1662551Y413624D01*
X1662459Y413643D01*
D02*
G37*
G36*
X1613618Y418501D02*
X1612139D01*
Y413619D01*
X1613655D01*
X1613720Y413628D01*
X1613858Y413638D01*
X1614016Y413647D01*
X1614182Y413665D01*
X1614348Y413693D01*
X1614487Y413730D01*
X1614505Y413739D01*
X1614552Y413749D01*
X1614616Y413776D01*
X1614700Y413813D01*
X1614792Y413869D01*
X1614885Y413924D01*
X1614977Y413989D01*
X1615069Y414063D01*
X1615079Y414081D01*
X1615116Y414118D01*
X1615171Y414183D01*
X1615236Y414276D01*
X1615310Y414396D01*
X1615393Y414534D01*
X1615467Y414692D01*
X1615532Y414867D01*
Y414877D01*
X1615541Y414895D01*
X1615550Y414923D01*
X1615560Y414960D01*
X1615569Y415006D01*
X1615587Y415071D01*
X1615606Y415135D01*
X1615624Y415209D01*
X1615652Y415394D01*
X1615680Y415607D01*
X1615698Y415847D01*
X1615707Y416106D01*
Y416115D01*
Y416152D01*
Y416199D01*
X1615698Y416273D01*
Y416356D01*
X1615689Y416448D01*
X1615680Y416559D01*
X1615670Y416670D01*
X1615624Y416920D01*
X1615569Y417179D01*
X1615486Y417419D01*
X1615430Y417539D01*
X1615375Y417641D01*
Y417650D01*
X1615356Y417669D01*
X1615338Y417696D01*
X1615319Y417733D01*
X1615245Y417826D01*
X1615153Y417937D01*
X1615033Y418057D01*
X1614894Y418177D01*
X1614737Y418279D01*
X1614570Y418362D01*
X1614552Y418371D01*
X1614505Y418381D01*
X1614422Y418408D01*
X1614302Y418436D01*
X1614154Y418455D01*
X1613969Y418482D01*
X1613858Y418492D01*
X1613738D01*
X1613618Y418501D01*
D02*
G37*
%LPD*%
D10*
X1717040Y454660D02*
Y455930D01*
X1718770Y460770D02*
X1722770D01*
Y452520D02*
Y460770D01*
X1718770Y430770D02*
X1722770D01*
Y439020D01*
M02*
