G04*
G04 #@! TF.GenerationSoftware,Altium Limited,Altium NEXUS,3.2.6 (83)*
G04*
G04 Layer_Physical_Order=1*
G04 Layer_Color=255*
%FSLAX44Y44*%
%MOMM*%
G71*
G04*
G04 #@! TF.SameCoordinates,94BC8023-4A76-4542-B889-E0E782ADE639*
G04*
G04*
G04 #@! TF.FilePolarity,Positive*
G04*
G01*
G75*
G04:AMPARAMS|DCode=11|XSize=0.55mm|YSize=1.55mm|CornerRadius=0mm|HoleSize=0mm|Usage=FLASHONLY|Rotation=90.000|XOffset=0mm|YOffset=0mm|HoleType=Round|Shape=Octagon|*
%AMOCTAGOND11*
4,1,8,-0.7750,-0.1375,-0.7750,0.1375,-0.6375,0.2750,0.6375,0.2750,0.7750,0.1375,0.7750,-0.1375,0.6375,-0.2750,-0.6375,-0.2750,-0.7750,-0.1375,0.0*
%
%ADD11OCTAGOND11*%

%ADD12R,1.5500X0.5500*%
%ADD13R,1.0000X1.0000*%
%ADD20C,0.2540*%
%ADD21C,2.4000*%
%ADD22C,1.0000*%
%ADD23R,1.0000X1.0000*%
%ADD24C,0.6000*%
D11*
X1706520Y455270D02*
D03*
D12*
Y436270D02*
D03*
X1725020Y445770D02*
D03*
D13*
X1686480Y451230D02*
D03*
Y435230D02*
D03*
D20*
X1674090Y452500D02*
X1682750D01*
X1673860Y452730D02*
X1674090Y452500D01*
X1665523Y444393D02*
X1673860Y452730D01*
X1665523Y409338D02*
Y444393D01*
X1680210Y422780D02*
X1680210D01*
X1685338Y427908D02*
Y434088D01*
X1686480Y435230D01*
X1680210Y422780D02*
X1685338Y427908D01*
X1686480Y451230D02*
X1690210Y454960D01*
X1691388D01*
X1691698Y455270D01*
X1708519D01*
X1706520Y431232D02*
Y435230D01*
X1698733Y423446D02*
X1706520Y431232D01*
X1694382Y423446D02*
X1698733D01*
X1693720Y422784D02*
X1694382Y423446D01*
X1693190Y438828D02*
X1700132Y445770D01*
X1724897D01*
X1686480Y436900D02*
X1688408Y438828D01*
X1693190D01*
X1640375Y400316D02*
X1663735Y407549D01*
X1665523Y409338D01*
X1638356Y400010D02*
X1640375Y400316D01*
X1601688Y400010D02*
X1638356D01*
X1600200Y401498D02*
Y419240D01*
Y401498D02*
X1601688Y400010D01*
X1590040Y429399D02*
X1600200Y419240D01*
X1682750Y452500D02*
X1682980Y452730D01*
D21*
X1628610Y440700D02*
D03*
D22*
X1590040Y416699D02*
D03*
Y403999D02*
D03*
D23*
Y429399D02*
D03*
D24*
X1673860Y452730D02*
D03*
X1680210Y422780D02*
D03*
X1693720D02*
D03*
M02*
