G04*
G04 #@! TF.GenerationSoftware,Altium Limited,Altium NEXUS,3.2.6 (83)*
G04*
G04 Layer_Physical_Order=2*
G04 Layer_Color=16711680*
%FSLAX44Y44*%
%MOMM*%
G71*
G04*
G04 #@! TF.SameCoordinates,94BC8023-4A76-4542-B889-E0E782ADE639*
G04*
G04*
G04 #@! TF.FilePolarity,Positive*
G04*
G01*
G75*
G04:AMPARAMS|DCode=11|XSize=0.55mm|YSize=1.55mm|CornerRadius=0mm|HoleSize=0mm|Usage=FLASHONLY|Rotation=90.000|XOffset=0mm|YOffset=0mm|HoleType=Round|Shape=Octagon|*
%AMOCTAGOND11*
4,1,8,-0.7750,-0.1375,-0.7750,0.1375,-0.6375,0.2750,0.6375,0.2750,0.7750,0.1375,0.7750,-0.1375,0.6375,-0.2750,-0.6375,-0.2750,-0.7750,-0.1375,0.0*
%
%ADD11OCTAGOND11*%

%ADD12R,1.5500X0.5500*%
%ADD13R,1.0000X1.0000*%
%ADD20C,0.2540*%
%ADD21C,2.4000*%
%ADD22C,1.0000*%
%ADD23R,1.0000X1.0000*%
%ADD24C,0.6000*%
D11*
X1723750Y454230D02*
D03*
D12*
Y435230D02*
D03*
X1705250Y444730D02*
D03*
D13*
X1686480Y451230D02*
D03*
Y435230D02*
D03*
D20*
X1673860Y452730D02*
X1682750D01*
X1696332Y443230D02*
X1705250D01*
X1687602Y436812D02*
X1689750Y438960D01*
X1692062D01*
X1696332Y443230D01*
X1679548Y423054D02*
X1684402Y427908D01*
X1679548Y418998D02*
Y423054D01*
X1684402Y433152D02*
X1686480Y435230D01*
X1684402Y427908D02*
Y433152D01*
X1639420Y405338D02*
X1677759Y417210D01*
X1679548Y418998D01*
X1640375Y400316D02*
X1684501Y413980D01*
X1685102Y414165D01*
X1685546Y414610D02*
X1706166Y435230D01*
X1685102Y414165D02*
X1685546Y414610D01*
X1639238Y405281D02*
X1639420Y405338D01*
X1706166Y435230D02*
X1723750D01*
X1686480Y451230D02*
X1689480Y454230D01*
X1723750D01*
X1638239Y405130D02*
X1639238Y405281D01*
X1601609Y405130D02*
X1638239D01*
X1590040Y416699D02*
X1600866Y405874D01*
X1601609Y405130D01*
X1638621Y400050D02*
X1640375Y400316D01*
X1595258Y400050D02*
X1638621D01*
X1590040Y403999D02*
X1591308D01*
X1595258Y400050D01*
X1726290Y452730D02*
X1727139Y453579D01*
D21*
X1628610Y440700D02*
D03*
D22*
X1590040Y416699D02*
D03*
Y403999D02*
D03*
D23*
Y429399D02*
D03*
D24*
X1673860Y452730D02*
D03*
X1680210Y422780D02*
D03*
X1693720D02*
D03*
M02*
