G04*
G04 #@! TF.GenerationSoftware,Altium Limited,Altium NEXUS,3.2.6 (83)*
G04*
G04 Layer_Color=16711935*
%FSLAX44Y44*%
%MOMM*%
G71*
G04*
G04 #@! TF.SameCoordinates,E101C6A8-1949-4893-99AA-7595D6EC33FA*
G04*
G04*
G04 #@! TF.FilePolarity,Negative*
G04*
G01*
G75*
%ADD58R,1.1524X1.1524*%
%ADD59R,1.1524X1.0524*%
G04:AMPARAMS|DCode=60|XSize=0.7524mm|YSize=1.7024mm|CornerRadius=0mm|HoleSize=0mm|Usage=FLASHONLY|Rotation=0.000|XOffset=0mm|YOffset=0mm|HoleType=Round|Shape=Octagon|*
%AMOCTAGOND60*
4,1,8,-0.1881,0.8512,0.1881,0.8512,0.3762,0.6631,0.3762,-0.6631,0.1881,-0.8512,-0.1881,-0.8512,-0.3762,-0.6631,-0.3762,0.6631,-0.1881,0.8512,0.0*
%
%ADD60OCTAGOND60*%

%ADD61R,0.7524X1.7024*%
%ADD62R,1.3524X1.9524*%
%ADD63R,1.0524X1.1524*%
%ADD64R,1.1524X1.1524*%
G04:AMPARAMS|DCode=76|XSize=0.6524mm|YSize=0.8624mm|CornerRadius=0mm|HoleSize=0mm|Usage=FLASHONLY|Rotation=270.000|XOffset=0mm|YOffset=0mm|HoleType=Round|Shape=Octagon|*
%AMOCTAGOND76*
4,1,8,0.4312,0.1631,0.4312,-0.1631,0.2681,-0.3262,-0.2681,-0.3262,-0.4312,-0.1631,-0.4312,0.1631,-0.2681,0.3262,0.2681,0.3262,0.4312,0.1631,0.0*
%
%ADD76OCTAGOND76*%

%ADD77R,0.8624X0.6524*%
G04:AMPARAMS|DCode=78|XSize=0.7024mm|YSize=1.7024mm|CornerRadius=0mm|HoleSize=0mm|Usage=FLASHONLY|Rotation=90.000|XOffset=0mm|YOffset=0mm|HoleType=Round|Shape=Octagon|*
%AMOCTAGOND78*
4,1,8,-0.8512,-0.1756,-0.8512,0.1756,-0.6756,0.3512,0.6756,0.3512,0.8512,0.1756,0.8512,-0.1756,0.6756,-0.3512,-0.6756,-0.3512,-0.8512,-0.1756,0.0*
%
%ADD78OCTAGOND78*%

%ADD79R,1.7024X0.7024*%
%ADD101R,0.1524X0.1524*%
%ADD102C,1.0000*%
%ADD103C,1.1524*%
%ADD104C,2.8524*%
G04:AMPARAMS|DCode=135|XSize=0.8024mm|YSize=1.2524mm|CornerRadius=0mm|HoleSize=0mm|Usage=FLASHONLY|Rotation=90.000|XOffset=0mm|YOffset=0mm|HoleType=Round|Shape=Octagon|*
%AMOCTAGOND135*
4,1,8,-0.6262,-0.2006,-0.6262,0.2006,-0.4256,0.4012,0.4256,0.4012,0.6262,0.2006,0.6262,-0.2006,0.4256,-0.4012,-0.4256,-0.4012,-0.6262,-0.2006,0.0*
%
%ADD135OCTAGOND135*%

%ADD136R,1.2524X0.8024*%
%ADD137R,0.8524X1.0524*%
G04:AMPARAMS|DCode=138|XSize=0.7024mm|YSize=1.7024mm|CornerRadius=0mm|HoleSize=0mm|Usage=FLASHONLY|Rotation=180.000|XOffset=0mm|YOffset=0mm|HoleType=Round|Shape=Octagon|*
%AMOCTAGOND138*
4,1,8,0.1756,-0.8512,-0.1756,-0.8512,-0.3512,-0.6756,-0.3512,0.6756,-0.1756,0.8512,0.1756,0.8512,0.3512,0.6756,0.3512,-0.6756,0.1756,-0.8512,0.0*
%
%ADD138OCTAGOND138*%

%ADD139R,0.7024X1.7024*%
%ADD140R,1.0524X2.1524*%
%ADD141O,1.0524X0.4024*%
%ADD142O,0.4024X1.0524*%
%ADD143O,1.6024X0.7524*%
%ADD144R,1.6024X0.7524*%
%ADD145R,2.1524X1.0524*%
%ADD146R,1.4824X1.4824*%
%ADD147R,1.7524X1.7524*%
D58*
X571750Y1310500D02*
D03*
X587750D02*
D03*
X588750Y1214500D02*
D03*
X572750D02*
D03*
X645500Y1230000D02*
D03*
X661500D02*
D03*
X620500Y1230500D02*
D03*
X646250Y1442000D02*
D03*
X646000Y1410500D02*
D03*
X662000D02*
D03*
X646000Y1426500D02*
D03*
X662000D02*
D03*
X312250Y1404750D02*
D03*
X604500Y1230500D02*
D03*
X662250Y1442000D02*
D03*
X296250Y1404750D02*
D03*
X661250Y1246250D02*
D03*
X645250D02*
D03*
X661250Y1213500D02*
D03*
X645250D02*
D03*
X599750Y1456250D02*
D03*
X583750D02*
D03*
X344500Y1419750D02*
D03*
X328500D02*
D03*
X296250D02*
D03*
X312250D02*
D03*
X435250Y1127900D02*
D03*
D59*
X473250Y1477250D02*
D03*
Y1460250D02*
D03*
X348750Y1165500D02*
D03*
Y1148500D02*
D03*
X613500Y1160000D02*
D03*
Y1177000D02*
D03*
X587750Y1156500D02*
D03*
Y1139500D02*
D03*
X563250Y1405250D02*
D03*
Y1388250D02*
D03*
X518250Y1353500D02*
D03*
X653500Y1472500D02*
D03*
X637000Y1472750D02*
D03*
X620750D02*
D03*
X669880Y1472760D02*
D03*
X518250Y1336500D02*
D03*
X548250Y1336500D02*
D03*
X593250Y1353750D02*
D03*
X620750Y1455750D02*
D03*
X637000D02*
D03*
X653500Y1455500D02*
D03*
X669880Y1455760D02*
D03*
X416750Y1480500D02*
D03*
Y1497500D02*
D03*
X589000Y1264500D02*
D03*
Y1281500D02*
D03*
X501500Y1403750D02*
D03*
Y1386750D02*
D03*
X333750Y1165500D02*
D03*
Y1148500D02*
D03*
X375750Y1403500D02*
D03*
Y1420500D02*
D03*
X593250Y1370750D02*
D03*
X563250Y1353750D02*
D03*
Y1370750D02*
D03*
X548250Y1353500D02*
D03*
D60*
X635500Y1110500D02*
D03*
D61*
X625500D02*
D03*
X615500D02*
D03*
D62*
X602500Y1073750D02*
D03*
X648500D02*
D03*
D63*
X385500Y1148500D02*
D03*
X368500D02*
D03*
X404250Y1148250D02*
D03*
X421250D02*
D03*
X453250D02*
D03*
X436250D02*
D03*
X482250Y1444500D02*
D03*
X465250D02*
D03*
X646000Y1160500D02*
D03*
X629000D02*
D03*
X521500Y1156500D02*
D03*
X538500D02*
D03*
X508500Y1254250D02*
D03*
X491500D02*
D03*
X645750Y1144000D02*
D03*
X628750D02*
D03*
X629000Y1193250D02*
D03*
X646000D02*
D03*
X629000Y1177000D02*
D03*
X646000D02*
D03*
X588500Y1294500D02*
D03*
X572000Y1230500D02*
D03*
X603500Y1246500D02*
D03*
X619500Y1214000D02*
D03*
X459000Y1460250D02*
D03*
X442000D02*
D03*
X620500Y1246500D02*
D03*
X602500Y1214000D02*
D03*
X589000Y1230500D02*
D03*
X571500Y1294500D02*
D03*
X600500Y1472250D02*
D03*
X583500D02*
D03*
X544500Y1254750D02*
D03*
X527500D02*
D03*
X345000Y1404750D02*
D03*
X328000D02*
D03*
X589250Y1246750D02*
D03*
X572250D02*
D03*
D64*
X369250Y1105500D02*
D03*
Y1121500D02*
D03*
X584750Y1110500D02*
D03*
Y1094500D02*
D03*
X613750Y1143500D02*
D03*
Y1127500D02*
D03*
X533250Y1337000D02*
D03*
Y1353000D02*
D03*
X577750Y1354250D02*
D03*
Y1370250D02*
D03*
X486000Y1387500D02*
D03*
Y1403500D02*
D03*
X307750Y1459500D02*
D03*
Y1443500D02*
D03*
X401750Y1497000D02*
D03*
Y1481000D02*
D03*
X488250Y1476750D02*
D03*
Y1460750D02*
D03*
X572250Y1265250D02*
D03*
Y1281250D02*
D03*
X400000Y1442500D02*
D03*
Y1458500D02*
D03*
X593250Y1404750D02*
D03*
Y1388750D02*
D03*
X360750Y1420000D02*
D03*
Y1404000D02*
D03*
D76*
X636000Y1491250D02*
D03*
D77*
X660000D02*
D03*
D78*
X508500Y1269500D02*
D03*
D79*
X527000Y1279000D02*
D03*
X508500Y1288500D02*
D03*
D101*
X669500Y1160250D02*
D03*
Y1190250D02*
D03*
D102*
X561100Y1199000D02*
D03*
X484900Y1188850D02*
D03*
X561100Y1178700D02*
D03*
D103*
X435250Y1115200D02*
D03*
Y1102500D02*
D03*
X447950Y1127900D02*
D03*
Y1102500D02*
D03*
Y1115200D02*
D03*
D104*
X710500Y1086500D02*
D03*
X260500Y1486500D02*
D03*
D135*
X417500Y1113500D02*
D03*
X567000Y1112000D02*
D03*
D136*
X417500Y1104000D02*
D03*
Y1094500D02*
D03*
X393500D02*
D03*
Y1113500D02*
D03*
X543000Y1112000D02*
D03*
Y1093000D02*
D03*
X567000D02*
D03*
Y1102500D02*
D03*
D137*
X562000Y1079000D02*
D03*
X547000D02*
D03*
X515500Y1102750D02*
D03*
X530500D02*
D03*
D138*
X551945Y1157311D02*
D03*
D139*
X570945D02*
D03*
X561445Y1138811D02*
D03*
D140*
X349050Y1201000D02*
D03*
X310950D02*
D03*
X298250D02*
D03*
X336350D02*
D03*
X323650D02*
D03*
X361750D02*
D03*
X387150D02*
D03*
X374450D02*
D03*
X412550D02*
D03*
X399850D02*
D03*
X437950D02*
D03*
X425250D02*
D03*
X463350D02*
D03*
X450650D02*
D03*
X310950Y1371000D02*
D03*
X298250D02*
D03*
X336350D02*
D03*
X323650D02*
D03*
X361750D02*
D03*
X349050D02*
D03*
X387150D02*
D03*
X374450D02*
D03*
X412550D02*
D03*
X399850D02*
D03*
X437950D02*
D03*
X425250D02*
D03*
X463350D02*
D03*
X450650D02*
D03*
D141*
X630250Y1284250D02*
D03*
X661250Y1294250D02*
D03*
Y1289250D02*
D03*
Y1284250D02*
D03*
Y1279250D02*
D03*
X630250D02*
D03*
Y1289250D02*
D03*
Y1294250D02*
D03*
X660500Y1371250D02*
D03*
Y1366250D02*
D03*
Y1361250D02*
D03*
Y1356250D02*
D03*
X629500D02*
D03*
Y1361250D02*
D03*
Y1366250D02*
D03*
Y1371250D02*
D03*
D142*
X642500Y1348250D02*
D03*
X652500Y1379250D02*
D03*
Y1348250D02*
D03*
X643250Y1271250D02*
D03*
X638250Y1302250D02*
D03*
X643250D02*
D03*
X648250D02*
D03*
X653250D02*
D03*
Y1271250D02*
D03*
X648250D02*
D03*
X638250D02*
D03*
X637500Y1379250D02*
D03*
X642500D02*
D03*
X647500D02*
D03*
Y1348250D02*
D03*
X637500D02*
D03*
D143*
X326250Y1441200D02*
D03*
D144*
Y1453900D02*
D03*
Y1466600D02*
D03*
Y1479300D02*
D03*
X380750Y1441200D02*
D03*
Y1453900D02*
D03*
Y1466600D02*
D03*
Y1479300D02*
D03*
D145*
X473350Y1330450D02*
D03*
Y1343150D02*
D03*
Y1305050D02*
D03*
Y1317750D02*
D03*
Y1279650D02*
D03*
Y1292350D02*
D03*
Y1254250D02*
D03*
Y1266950D02*
D03*
Y1228850D02*
D03*
Y1241550D02*
D03*
D146*
X373250Y1296850D02*
D03*
X354900D02*
D03*
X391600D02*
D03*
X373250Y1278500D02*
D03*
Y1315200D02*
D03*
X354900D02*
D03*
X391600D02*
D03*
Y1278500D02*
D03*
X354900D02*
D03*
D147*
X645750Y1286750D02*
D03*
X645000Y1363750D02*
D03*
M02*
