G04*
G04 #@! TF.GenerationSoftware,Altium Limited,Altium NEXUS,3.2.6 (83)*
G04*
G04 Layer_Physical_Order=1*
G04 Layer_Color=255*
%FSLAX44Y44*%
%MOMM*%
G71*
G04*
G04 #@! TF.SameCoordinates,E101C6A8-1949-4893-99AA-7595D6EC33FA*
G04*
G04*
G04 #@! TF.FilePolarity,Positive*
G04*
G01*
G75*
%ADD10C,0.2500*%
%ADD11C,0.2000*%
%ADD12C,0.2540*%
%ADD16R,1.0000X1.0000*%
%ADD17R,1.0000X0.9000*%
G04:AMPARAMS|DCode=18|XSize=0.6mm|YSize=1.55mm|CornerRadius=0mm|HoleSize=0mm|Usage=FLASHONLY|Rotation=0.000|XOffset=0mm|YOffset=0mm|HoleType=Round|Shape=Octagon|*
%AMOCTAGOND18*
4,1,8,-0.1500,0.7750,0.1500,0.7750,0.3000,0.6250,0.3000,-0.6250,0.1500,-0.7750,-0.1500,-0.7750,-0.3000,-0.6250,-0.3000,0.6250,-0.1500,0.7750,0.0*
%
%ADD18OCTAGOND18*%

%ADD19R,0.6000X1.5500*%
%ADD20R,1.2000X1.8000*%
%ADD21R,0.9000X1.0000*%
%ADD22R,1.0000X1.0000*%
%ADD23R,2.7500X2.7500*%
%ADD24R,0.3000X0.6000*%
%ADD25R,0.6000X0.3000*%
%ADD26R,1.0000X0.7000*%
%ADD27R,0.8000X1.0000*%
%ADD28R,1.4000X1.4000*%
%ADD29R,0.2500X0.7500*%
%ADD30R,1.8000X1.2000*%
%ADD31R,1.5500X0.6000*%
G04:AMPARAMS|DCode=32|XSize=0.6mm|YSize=1.55mm|CornerRadius=0mm|HoleSize=0mm|Usage=FLASHONLY|Rotation=270.000|XOffset=0mm|YOffset=0mm|HoleType=Round|Shape=Octagon|*
%AMOCTAGOND32*
4,1,8,0.7750,0.1500,0.7750,-0.1500,0.6250,-0.3000,-0.6250,-0.3000,-0.7750,-0.1500,-0.7750,0.1500,-0.6250,0.3000,0.6250,0.3000,0.7750,0.1500,0.0*
%
%ADD32OCTAGOND32*%

G04:AMPARAMS|DCode=33|XSize=0.5mm|YSize=0.71mm|CornerRadius=0mm|HoleSize=0mm|Usage=FLASHONLY|Rotation=270.000|XOffset=0mm|YOffset=0mm|HoleType=Round|Shape=Octagon|*
%AMOCTAGOND33*
4,1,8,0.3550,0.1250,0.3550,-0.1250,0.2300,-0.2500,-0.2300,-0.2500,-0.3550,-0.1250,-0.3550,0.1250,-0.2300,0.2500,0.2300,0.2500,0.3550,0.1250,0.0*
%
%ADD33OCTAGOND33*%

%ADD34R,0.7100X0.5000*%
G04:AMPARAMS|DCode=35|XSize=0.55mm|YSize=1.55mm|CornerRadius=0mm|HoleSize=0mm|Usage=FLASHONLY|Rotation=90.000|XOffset=0mm|YOffset=0mm|HoleType=Round|Shape=Octagon|*
%AMOCTAGOND35*
4,1,8,-0.7750,-0.1375,-0.7750,0.1375,-0.6375,0.2750,0.6375,0.2750,0.7750,0.1375,0.7750,-0.1375,0.6375,-0.2750,-0.6375,-0.2750,-0.7750,-0.1375,0.0*
%
%ADD35OCTAGOND35*%

%ADD36R,1.5500X0.5500*%
%ADD37R,0.6500X1.1000*%
G04:AMPARAMS|DCode=38|XSize=0.65mm|YSize=1.1mm|CornerRadius=0mm|HoleSize=0mm|Usage=FLASHONLY|Rotation=180.000|XOffset=0mm|YOffset=0mm|HoleType=Round|Shape=Octagon|*
%AMOCTAGOND38*
4,1,8,0.1625,-0.5500,-0.1625,-0.5500,-0.3250,-0.3875,-0.3250,0.3875,-0.1625,0.5500,0.1625,0.5500,0.3250,0.3875,0.3250,-0.3875,0.1625,-0.5500,0.0*
%
%ADD38OCTAGOND38*%

%ADD39R,1.3000X0.8000*%
G04:AMPARAMS|DCode=40|XSize=0.8mm|YSize=1.3mm|CornerRadius=0mm|HoleSize=0mm|Usage=FLASHONLY|Rotation=90.000|XOffset=0mm|YOffset=0mm|HoleType=Round|Shape=Octagon|*
%AMOCTAGOND40*
4,1,8,-0.6500,-0.2000,-0.6500,0.2000,-0.4500,0.4000,0.4500,0.4000,0.6500,0.2000,0.6500,-0.2000,0.4500,-0.4000,-0.4500,-0.4000,-0.6500,-0.2000,0.0*
%
%ADD40OCTAGOND40*%

%ADD41R,1.4000X1.4000*%
G04:AMPARAMS|DCode=42|XSize=1mm|YSize=0.9mm|CornerRadius=0mm|HoleSize=0mm|Usage=FLASHONLY|Rotation=0.000|XOffset=0mm|YOffset=0mm|HoleType=Round|Shape=Octagon|*
%AMOCTAGOND42*
4,1,8,0.5000,-0.2250,0.5000,0.2250,0.2750,0.4500,-0.2750,0.4500,-0.5000,0.2250,-0.5000,-0.2250,-0.2750,-0.4500,0.2750,-0.4500,0.5000,-0.2250,0.0*
%
%ADD42OCTAGOND42*%

%ADD43R,1.2700X0.6000*%
%ADD44O,1.2700X0.6000*%
%ADD45R,3.8100X3.9100*%
%ADD46R,0.4000X5.3000*%
%ADD47R,2.3500X2.0500*%
G04:AMPARAMS|DCode=48|XSize=2.05mm|YSize=2.35mm|CornerRadius=0mm|HoleSize=0mm|Usage=FLASHONLY|Rotation=90.000|XOffset=0mm|YOffset=0mm|HoleType=Round|Shape=Octagon|*
%AMOCTAGOND48*
4,1,8,-1.1750,-0.5125,-1.1750,0.5125,-0.6625,1.0250,0.6625,1.0250,1.1750,0.5125,1.1750,-0.5125,0.6625,-1.0250,-0.6625,-1.0250,-1.1750,-0.5125,0.0*
%
%ADD48OCTAGOND48*%

%ADD49R,2.2000X2.7000*%
%ADD50R,0.7400X1.7000*%
%ADD51R,1.3000X2.7000*%
%ADD52R,2.7000X1.3000*%
%ADD53R,2.7400X4.9500*%
%ADD54R,1.1000X0.5000*%
%ADD55R,2.5000X0.9000*%
%ADD56O,2.5000X0.9000*%
%ADD57R,3.3000X1.8000*%
%ADD102C,1.0000*%
%ADD105C,0.8000*%
%ADD106C,0.1710*%
%ADD107C,0.3000*%
%ADD108C,0.4000*%
%ADD109C,0.1713*%
%ADD110C,0.6000*%
%ADD111C,0.8000*%
%ADD112C,0.7000*%
%ADD113C,2.7000*%
%ADD114C,0.6000*%
G36*
X524827Y1360962D02*
X524650Y1360070D01*
X533396D01*
Y1358800D01*
X534666D01*
Y1353152D01*
X536746D01*
X538908Y1353582D01*
X539750Y1354144D01*
Y1351640D01*
X534666D01*
Y1346100D01*
Y1340560D01*
X539750D01*
Y1338940D01*
X534666D01*
Y1333400D01*
X533396D01*
Y1332130D01*
X524506D01*
Y1328250D01*
X524250D01*
X524250Y1318750D01*
X521211D01*
X521346Y1319430D01*
X512600D01*
Y1320700D01*
X511330D01*
Y1326349D01*
X509250D01*
X507088Y1325919D01*
X506304Y1325395D01*
Y1327860D01*
X511330D01*
Y1333400D01*
Y1338940D01*
X506304D01*
Y1340560D01*
X511330D01*
Y1346100D01*
X512600D01*
Y1347370D01*
X521490D01*
Y1351250D01*
X521750D01*
X521750Y1361250D01*
X525020Y1361250D01*
X524827Y1360962D01*
D02*
G37*
G36*
X447460Y1440960D02*
X447460D01*
X443500Y1437000D01*
X443500Y1416000D01*
X447460Y1412040D01*
Y1411960D01*
X447540D01*
X461250Y1398250D01*
Y1364340D01*
X460470D01*
Y1358800D01*
X459200D01*
Y1357530D01*
X450310D01*
Y1353260D01*
X457410D01*
Y1351640D01*
X450310D01*
Y1347370D01*
X459200D01*
Y1344830D01*
X450310D01*
Y1340560D01*
X457410D01*
Y1338940D01*
X450310D01*
Y1334670D01*
X459200D01*
Y1332130D01*
X450310D01*
Y1327860D01*
X457410D01*
Y1326240D01*
X450310D01*
Y1321970D01*
X459200D01*
Y1319430D01*
X450310D01*
Y1317750D01*
X439250D01*
X439250Y1401000D01*
X429000Y1411250D01*
X429000Y1442000D01*
X443500Y1456500D01*
X447460D01*
Y1440960D01*
D02*
G37*
%LPC*%
G36*
X532126Y1357530D02*
X524650D01*
X524827Y1356638D01*
X526052Y1354806D01*
X527884Y1353582D01*
X530046Y1353152D01*
X532126D01*
Y1357530D01*
D02*
G37*
G36*
Y1351640D02*
X524506D01*
Y1347370D01*
X532126D01*
Y1351640D01*
D02*
G37*
G36*
Y1344830D02*
X524506D01*
Y1340560D01*
X532126D01*
Y1344830D01*
D02*
G37*
G36*
X521490Y1344830D02*
X513870D01*
Y1340560D01*
X521490D01*
Y1344830D01*
D02*
G37*
G36*
X532126Y1338940D02*
X524506D01*
Y1334670D01*
X532126D01*
Y1338940D01*
D02*
G37*
G36*
X521490D02*
X513870D01*
Y1334670D01*
X521490D01*
Y1338940D01*
D02*
G37*
G36*
Y1332130D02*
X513870D01*
Y1327860D01*
X521490D01*
Y1332130D01*
D02*
G37*
G36*
X515950Y1326349D02*
X513870D01*
Y1321970D01*
X521346D01*
X521169Y1322862D01*
X519944Y1324694D01*
X518112Y1325919D01*
X515950Y1326349D01*
D02*
G37*
G36*
X457930Y1364340D02*
X450310D01*
Y1360070D01*
X457930D01*
Y1364340D01*
D02*
G37*
%LPD*%
D10*
X661430Y1269570D02*
Y1299430D01*
X668750Y1306750D01*
X661430Y1269570D02*
X661500Y1269500D01*
D11*
X546500Y1110500D02*
Y1115250D01*
X320750Y1264750D02*
X331000D01*
X319250Y1266250D02*
X320750Y1264750D01*
X318500Y1276750D02*
X336603Y1294853D01*
X318500Y1266250D02*
Y1276750D01*
X468000Y1269500D02*
Y1277289D01*
X460789Y1284500D02*
X468000Y1277289D01*
X440500Y1284500D02*
X460789D01*
X591939Y1287061D02*
Y1309917D01*
Y1287061D02*
X598750Y1280250D01*
X591939Y1309917D02*
X595770Y1313748D01*
X595871D01*
X599373Y1317250D01*
X412000Y1337000D02*
Y1337500D01*
X387100Y1355470D02*
Y1355667D01*
Y1355470D02*
X393025Y1349545D01*
Y1349475D02*
Y1349545D01*
Y1349475D02*
X396250Y1346250D01*
X403250D02*
X412000Y1337500D01*
X396250Y1346250D02*
X403250D01*
X440500Y1300500D02*
X451500D01*
X439000Y1311000D02*
X440500Y1309500D01*
X439000Y1311000D02*
Y1311250D01*
X440500Y1300500D02*
Y1309500D01*
X409750Y1274250D02*
X410855Y1273145D01*
X405750Y1278250D02*
X409750Y1274250D01*
X410855Y1265059D02*
Y1273145D01*
X336603Y1294853D02*
X349397D01*
X349500Y1294750D01*
X381750Y1337000D02*
X394750D01*
X395000Y1337250D01*
X361000Y1321250D02*
X361500Y1321750D01*
Y1326000D01*
X363000Y1327500D01*
X378000D02*
X379250Y1328750D01*
X363000Y1327500D02*
X378000D01*
X379250Y1328750D02*
Y1334500D01*
X381750Y1337000D01*
X397500Y1279750D02*
X399000D01*
X400500Y1278250D01*
X405750D01*
X349500Y1314750D02*
Y1333500D01*
X349500Y1314750D02*
X349500Y1314750D01*
X599373Y1317250D02*
X616500D01*
X550750Y1449200D02*
Y1460250D01*
D12*
X578000Y1457000D02*
X588000D01*
X595875Y1464875D01*
D16*
X388750Y1117250D02*
D03*
X404750D02*
D03*
X351000D02*
D03*
X367000D02*
D03*
X319250Y1266250D02*
D03*
X303250D02*
D03*
X303250Y1251250D02*
D03*
X319250D02*
D03*
X366250Y1455250D02*
D03*
X350250D02*
D03*
X618250Y1137500D02*
D03*
X634250D02*
D03*
X527500Y1154000D02*
D03*
X543500D02*
D03*
X573250D02*
D03*
X557250D02*
D03*
X490000Y1414750D02*
D03*
X506000D02*
D03*
X459750Y1498500D02*
D03*
X443750D02*
D03*
X490500D02*
D03*
X474500D02*
D03*
X435250Y1127900D02*
D03*
D17*
X367000Y1132000D02*
D03*
Y1149000D02*
D03*
X659750Y1102000D02*
D03*
Y1119000D02*
D03*
X590750Y1102000D02*
D03*
Y1119000D02*
D03*
X375000Y1428250D02*
D03*
Y1411250D02*
D03*
X482500Y1287000D02*
D03*
Y1270000D02*
D03*
X467500Y1253250D02*
D03*
Y1236250D02*
D03*
X540500Y1244500D02*
D03*
Y1227500D02*
D03*
X602750Y1153250D02*
D03*
X497500Y1287000D02*
D03*
Y1270000D02*
D03*
X617750Y1153250D02*
D03*
X587750D02*
D03*
X429750Y1467250D02*
D03*
Y1484250D02*
D03*
X459750Y1467250D02*
D03*
Y1484250D02*
D03*
X444750Y1467250D02*
D03*
Y1484250D02*
D03*
X474750Y1467250D02*
D03*
Y1484250D02*
D03*
D18*
X546500Y1110500D02*
D03*
X615500D02*
D03*
D19*
X556500D02*
D03*
X566500D02*
D03*
X625500D02*
D03*
X635500D02*
D03*
D20*
X579500Y1073750D02*
D03*
X533500D02*
D03*
X648500D02*
D03*
X602500D02*
D03*
D21*
X362250Y1411500D02*
D03*
X345250D02*
D03*
X319750Y1236250D02*
D03*
X302750D02*
D03*
X412000Y1337000D02*
D03*
X395000D02*
D03*
X573750Y1139000D02*
D03*
X556750D02*
D03*
X452000Y1256500D02*
D03*
X435000D02*
D03*
X567250Y1245000D02*
D03*
X584250D02*
D03*
X567250Y1260000D02*
D03*
X584250D02*
D03*
X567750Y1230000D02*
D03*
X584750D02*
D03*
X381750Y1337000D02*
D03*
X364750D02*
D03*
X544000Y1139000D02*
D03*
X527000D02*
D03*
X562250Y1301750D02*
D03*
X579250D02*
D03*
D22*
X319250Y1334500D02*
D03*
Y1350500D02*
D03*
X390000Y1411750D02*
D03*
Y1427750D02*
D03*
X550000Y1276750D02*
D03*
Y1260750D02*
D03*
X482500Y1252750D02*
D03*
Y1236750D02*
D03*
X303250Y1322750D02*
D03*
Y1338750D02*
D03*
X303000Y1292750D02*
D03*
Y1308750D02*
D03*
X440500Y1284500D02*
D03*
Y1300500D02*
D03*
X524000Y1125750D02*
D03*
Y1109750D02*
D03*
X349500Y1349750D02*
D03*
Y1333750D02*
D03*
X409750Y1290250D02*
D03*
Y1274250D02*
D03*
X490000Y1435250D02*
D03*
Y1451250D02*
D03*
X598750Y1435500D02*
D03*
Y1451500D02*
D03*
Y1467750D02*
D03*
Y1483750D02*
D03*
X489750Y1467750D02*
D03*
Y1483750D02*
D03*
D23*
X373500Y1297250D02*
D03*
D24*
X356000Y1321250D02*
D03*
X361000D02*
D03*
X366000D02*
D03*
X371000D02*
D03*
X376000D02*
D03*
X381000D02*
D03*
X386000D02*
D03*
X391000D02*
D03*
Y1273250D02*
D03*
X386000D02*
D03*
X381000D02*
D03*
X376000D02*
D03*
X371000D02*
D03*
X366000D02*
D03*
X361000D02*
D03*
X356000D02*
D03*
D25*
X397500Y1314750D02*
D03*
Y1309750D02*
D03*
Y1304750D02*
D03*
Y1299750D02*
D03*
Y1294750D02*
D03*
Y1289750D02*
D03*
Y1284750D02*
D03*
Y1279750D02*
D03*
X349500D02*
D03*
Y1284750D02*
D03*
Y1289750D02*
D03*
Y1294750D02*
D03*
Y1299750D02*
D03*
Y1304750D02*
D03*
Y1309750D02*
D03*
Y1314750D02*
D03*
D26*
X648500Y1152750D02*
D03*
Y1182750D02*
D03*
Y1197750D02*
D03*
D27*
X678500Y1137750D02*
D03*
X658500D02*
D03*
X678500Y1212750D02*
D03*
X658500D02*
D03*
D28*
X312750Y1087500D02*
D03*
X376750D02*
D03*
Y1485750D02*
D03*
X312750D02*
D03*
D29*
X468000Y1300500D02*
D03*
X463000D02*
D03*
X458000D02*
D03*
X453000D02*
D03*
X468000Y1269500D02*
D03*
X463000D02*
D03*
X458000D02*
D03*
X453000D02*
D03*
D30*
X300500Y1455500D02*
D03*
Y1409500D02*
D03*
Y1164500D02*
D03*
Y1118500D02*
D03*
D31*
X337250Y1422500D02*
D03*
Y1432500D02*
D03*
Y1131500D02*
D03*
Y1141500D02*
D03*
D32*
Y1442500D02*
D03*
Y1151500D02*
D03*
D33*
X515000Y1301750D02*
D03*
X564000Y1276250D02*
D03*
X526500Y1301750D02*
D03*
D34*
X491000D02*
D03*
X588000Y1276250D02*
D03*
X550500Y1301750D02*
D03*
D35*
X611250Y1207000D02*
D03*
D36*
Y1188000D02*
D03*
X629750Y1197500D02*
D03*
D37*
X523000Y1282250D02*
D03*
X513500D02*
D03*
X532500D02*
D03*
Y1258250D02*
D03*
X523000D02*
D03*
D38*
X513500D02*
D03*
D39*
X320250Y1321750D02*
D03*
D40*
Y1307750D02*
D03*
D41*
X495500Y1076500D02*
D03*
Y1140500D02*
D03*
D42*
X602750Y1170250D02*
D03*
X617750D02*
D03*
X587750D02*
D03*
D43*
X459200Y1358800D02*
D03*
Y1346100D02*
D03*
Y1333400D02*
D03*
Y1320700D02*
D03*
X512600Y1358800D02*
D03*
Y1346100D02*
D03*
Y1333400D02*
D03*
X533396Y1346100D02*
D03*
Y1333400D02*
D03*
Y1320700D02*
D03*
X586796Y1358800D02*
D03*
Y1346100D02*
D03*
Y1333400D02*
D03*
Y1320700D02*
D03*
D44*
X512600D02*
D03*
X533396Y1358800D02*
D03*
D45*
X479000Y1339750D02*
D03*
X566996D02*
D03*
D46*
X491996D02*
D03*
X554000D02*
D03*
D47*
X586000Y1391250D02*
D03*
D48*
X543500D02*
D03*
D49*
X645000Y1485000D02*
D03*
Y1433000D02*
D03*
D50*
X361700Y1182470D02*
D03*
X310900D02*
D03*
X323600Y1212470D02*
D03*
X336300Y1182470D02*
D03*
X349000Y1212470D02*
D03*
X374400D02*
D03*
X387100Y1182470D02*
D03*
X399800Y1212470D02*
D03*
X412500Y1182470D02*
D03*
X336300Y1360270D02*
D03*
X349000Y1390270D02*
D03*
X361700Y1360270D02*
D03*
X374400Y1390270D02*
D03*
X387100Y1360270D02*
D03*
X399800Y1390270D02*
D03*
X412500Y1360270D02*
D03*
D51*
X504500Y1389250D02*
D03*
X475500D02*
D03*
D52*
X463500Y1421000D02*
D03*
Y1450000D02*
D03*
D53*
X550750Y1460250D02*
D03*
D54*
X578000Y1489500D02*
D03*
Y1483000D02*
D03*
Y1476500D02*
D03*
Y1470000D02*
D03*
Y1463500D02*
D03*
Y1457000D02*
D03*
Y1450500D02*
D03*
Y1444000D02*
D03*
Y1437500D02*
D03*
Y1431000D02*
D03*
X523500D02*
D03*
Y1437500D02*
D03*
Y1444000D02*
D03*
Y1450500D02*
D03*
Y1457000D02*
D03*
Y1463500D02*
D03*
Y1470000D02*
D03*
Y1476500D02*
D03*
Y1483000D02*
D03*
Y1489500D02*
D03*
D55*
X616500Y1257250D02*
D03*
Y1272250D02*
D03*
Y1287250D02*
D03*
Y1302250D02*
D03*
Y1317250D02*
D03*
Y1332250D02*
D03*
Y1347250D02*
D03*
Y1362250D02*
D03*
D56*
Y1377250D02*
D03*
D57*
X661500Y1230250D02*
D03*
Y1404250D02*
D03*
D102*
X561100Y1199000D02*
D03*
X484900Y1188850D02*
D03*
X561100Y1178700D02*
D03*
X435250Y1115200D02*
D03*
Y1102500D02*
D03*
X447950Y1127900D02*
D03*
Y1102500D02*
D03*
Y1115200D02*
D03*
D105*
X497600Y1182500D02*
D03*
X510300D02*
D03*
X523000D02*
D03*
X535700D02*
D03*
X548400D02*
D03*
Y1195200D02*
D03*
X535700D02*
D03*
X523000D02*
D03*
X510300D02*
D03*
X497600D02*
D03*
D106*
X401000Y1075835D02*
Y1085000D01*
X388750Y1121395D02*
Y1150250D01*
X387188Y1119834D02*
X388750Y1121395D01*
X387043Y1119834D02*
X387188D01*
X370600Y1168400D02*
X388750Y1150250D01*
X370600Y1168400D02*
X370600D01*
X370250Y1168750D02*
X370600Y1168400D01*
X401000Y1085000D02*
X422250Y1106250D01*
Y1115147D01*
X430858Y1123755D01*
X560395Y1134855D02*
X560395D01*
X584358Y1110892D02*
X597711D01*
X560395Y1134855D02*
X584358Y1110892D01*
X556750Y1138500D02*
X560395Y1134855D01*
X315000Y1135750D02*
Y1148000D01*
Y1135750D02*
X319000Y1131750D01*
X336000D01*
X315000Y1148000D02*
X317455Y1150455D01*
Y1197545D01*
X302250Y1212750D02*
X317455Y1197545D01*
X324500Y1194250D02*
X336000Y1205750D01*
Y1229294D01*
X324500Y1182855D02*
Y1194250D01*
X635500Y1109395D02*
X636145Y1108750D01*
X649250Y1102750D02*
X658826D01*
X636145Y1108750D02*
X643250D01*
X635500D02*
Y1109395D01*
X643250Y1108750D02*
X649250Y1102750D01*
X635500Y1090502D02*
Y1108750D01*
Y1109395D02*
Y1110500D01*
X315250Y1392605D02*
X320605Y1387250D01*
X312750Y1485750D02*
X315250Y1483250D01*
Y1392605D02*
Y1483250D01*
X340000Y1402500D02*
X373998D01*
X375000Y1403502D02*
Y1411250D01*
X373998Y1402500D02*
X375000Y1403502D01*
X292040Y1358790D02*
X320605Y1387355D01*
X362250Y1411500D02*
X365895Y1415145D01*
Y1419645D01*
X374500Y1428250D01*
X375000D01*
X358605Y1415145D02*
X362250Y1411500D01*
X358605Y1415145D02*
Y1421145D01*
X357250Y1422500D02*
X358605Y1421145D01*
X375000Y1411250D02*
X389500D01*
X390000Y1411750D01*
X402000Y1424750D02*
X433250Y1393500D01*
X402000Y1424750D02*
X402500D01*
X433250Y1392875D02*
Y1393500D01*
X328500Y1391000D02*
X340000Y1402500D01*
X366500Y1131500D02*
X367000Y1132000D01*
X337250Y1131500D02*
X366500D01*
X376750Y1087500D02*
Y1105313D01*
X386911Y1115411D02*
Y1117455D01*
X384605Y1113105D02*
X386911Y1115411D01*
X384542Y1113105D02*
X384605D01*
X376750Y1105313D02*
X384542Y1113105D01*
X367000Y1132000D02*
X367500D01*
X587105Y1105645D02*
X590750Y1102000D01*
X578355Y1105645D02*
X587105D01*
X573500Y1110500D02*
X578355Y1105645D01*
X597711Y1110892D02*
X600250Y1108353D01*
Y1099500D02*
X604250Y1095500D01*
X600250Y1099500D02*
Y1108353D01*
X604250Y1095500D02*
Y1095500D01*
Y1095500D02*
X610250Y1089500D01*
X566500Y1110500D02*
X573500D01*
X610250Y1089500D02*
X634498D01*
X556750Y1138500D02*
Y1139000D01*
X374400Y1212470D02*
X376645Y1210225D01*
X370250Y1168750D02*
Y1197500D01*
X374400Y1212470D02*
Y1230650D01*
X366750Y1201000D02*
X370250Y1197500D01*
X366750Y1201000D02*
Y1249956D01*
X399500Y1182897D02*
Y1212470D01*
X292040Y1177133D02*
Y1358790D01*
X328500Y1351750D02*
X336250Y1344000D01*
X328500Y1351750D02*
Y1391000D01*
X341750Y1255250D02*
Y1280538D01*
X345317Y1284105D01*
X337750Y1251250D02*
X341750Y1255250D01*
X319250Y1251250D02*
X337750D01*
X319000Y1251000D02*
X319250Y1251250D01*
X319000Y1237000D02*
Y1249750D01*
Y1251000D01*
Y1237000D02*
X319750Y1236250D01*
X302000Y1232500D02*
X302250Y1232250D01*
Y1212750D02*
Y1232250D01*
X349125Y1299375D02*
X349500Y1299750D01*
X327078Y1299375D02*
X349125D01*
X341813Y1288313D02*
X342044Y1288544D01*
X356000Y1259806D02*
Y1273250D01*
X396019Y1245277D02*
Y1246231D01*
X325766Y1298063D02*
X327078Y1299375D01*
X340017Y1288313D02*
X341813D01*
X342044Y1288544D02*
Y1289750D01*
X349500D01*
X354605Y1257250D02*
Y1258411D01*
X356000Y1259806D01*
X396019Y1245277D02*
X396441Y1244855D01*
X376000Y1266250D02*
X396019Y1246231D01*
X376000Y1266250D02*
Y1273250D01*
X554000Y1339750D02*
Y1382119D01*
X613750Y1329500D02*
X616500Y1332250D01*
X600250Y1329500D02*
X613750D01*
X447950Y1102500D02*
X449750D01*
X489000Y1141750D02*
X499250D01*
X449750Y1102500D02*
X489000Y1141750D01*
X550000Y1229500D02*
Y1232750D01*
X551000Y1228500D02*
Y1228500D01*
X550000Y1229500D02*
X551000Y1228500D01*
Y1228500D02*
X564614Y1214886D01*
X546750Y1236000D02*
X550000Y1232750D01*
X436020Y1268730D02*
X452004D01*
X452274Y1269000D01*
X435750D02*
X436020Y1268730D01*
X432905Y1269000D02*
X435750D01*
X431250Y1270655D02*
Y1334750D01*
Y1270655D02*
X432905Y1269000D01*
X435750Y1257250D02*
Y1268662D01*
X463000Y1264080D02*
Y1269500D01*
Y1264080D02*
X464820Y1262260D01*
X482748D01*
X452000Y1257000D02*
X457605Y1262605D01*
Y1269500D01*
X451500Y1312000D02*
X471750D01*
X477579Y1306171D01*
Y1291921D02*
Y1306171D01*
X435750Y1268662D02*
Y1269000D01*
X550250Y1411103D02*
Y1412250D01*
X539000Y1423500D02*
Y1425000D01*
Y1423500D02*
X550250Y1412250D01*
X517750Y1205500D02*
X538100D01*
X502250Y1221000D02*
X517750Y1205500D01*
X538100D02*
X548400Y1195200D01*
X500250Y1221000D02*
X502250D01*
X477750Y1165250D02*
X496750D01*
X417605Y1225395D02*
X477750Y1165250D01*
X506153Y1158855D02*
X516750Y1169452D01*
X470395Y1158855D02*
X506153D01*
X413250Y1216000D02*
X470395Y1158855D01*
X462184Y1154352D02*
X527000D01*
X410000Y1206536D02*
X462184Y1154352D01*
X588855Y1187395D02*
X598645Y1177605D01*
X587311Y1187395D02*
X588855D01*
X617250Y1170250D02*
X617750D01*
X609895Y1177605D02*
X617250Y1170250D01*
X598645Y1177605D02*
X609895D01*
X580750Y1181000D02*
X590000D01*
X601000Y1170000D01*
X634498Y1089500D02*
X635500Y1090502D01*
X560683Y1121105D02*
X562355Y1119433D01*
X564355Y1117395D02*
X564355D01*
X562355Y1119395D02*
Y1119433D01*
X560682Y1121105D02*
X560683D01*
X554204Y1122796D02*
X558991D01*
X560682Y1121105D01*
X564355Y1117395D02*
X566500Y1115250D01*
X562355Y1119395D02*
X564355Y1117395D01*
X516750Y1169452D02*
X569007D01*
X573000Y1165459D01*
Y1159000D02*
Y1165459D01*
X527000Y1143750D02*
Y1154352D01*
X544000Y1133000D02*
X554204Y1122796D01*
X544000Y1133000D02*
Y1143250D01*
X566500Y1110500D02*
Y1115250D01*
X573250Y1158750D02*
X573750Y1158250D01*
X573000Y1159000D02*
X573250Y1158750D01*
X573750Y1143750D02*
Y1158250D01*
X570105Y1139605D02*
X573750Y1143250D01*
Y1143750D01*
X564614Y1214886D02*
X577364D01*
X531250Y1236000D02*
X546750D01*
X577364Y1214886D02*
X591692D01*
X462817Y1227395D02*
X505553D01*
X452956Y1237256D02*
X462817Y1227395D01*
X452956Y1237256D02*
Y1240794D01*
X505553Y1227395D02*
X523802Y1209146D01*
X500750Y1242750D02*
X525000Y1218500D01*
Y1218250D02*
Y1218500D01*
X480500Y1288500D02*
X483000D01*
X477579Y1291921D02*
X477579Y1291921D01*
Y1291421D02*
Y1291921D01*
Y1291421D02*
X480500Y1288500D01*
X483000Y1271500D02*
X485063Y1273563D01*
X486645Y1277645D02*
Y1277645D01*
X485063Y1276063D02*
X486645Y1277645D01*
X485063Y1273563D02*
Y1276063D01*
X486645Y1277645D02*
X488645Y1279645D01*
X488683D01*
X490355Y1281317D01*
Y1281355D01*
X493355Y1283355D02*
X497500Y1287500D01*
Y1292000D01*
X492355Y1283355D02*
X493355D01*
X490355Y1281355D02*
X492355Y1283355D01*
X503500Y1260250D02*
X511105D01*
X498313Y1265437D02*
Y1270687D01*
Y1265437D02*
X503500Y1260250D01*
X483000Y1288500D02*
X491000Y1296500D01*
Y1301750D01*
X435000Y1256500D02*
X435750Y1257250D01*
X511105Y1260250D02*
X512124Y1259231D01*
Y1256252D02*
Y1259231D01*
X507250Y1301750D02*
X515000D01*
X497500Y1292000D02*
X507250Y1301750D01*
X492050D02*
X493695Y1303395D01*
Y1303445D01*
X502250Y1312000D01*
X512600Y1335250D02*
X514450Y1333400D01*
X515000Y1301750D02*
X523250D01*
X512600Y1320700D02*
X525000Y1308300D01*
Y1302000D02*
X525250Y1301750D01*
X525000Y1302000D02*
Y1308300D01*
X537863Y1316137D02*
Y1318555D01*
X535718Y1320700D02*
X537863Y1318555D01*
Y1316137D02*
X547500Y1306500D01*
Y1303395D02*
X549145Y1301750D01*
X549250D01*
X547500Y1303395D02*
Y1306500D01*
X549250Y1301750D02*
X559750D01*
X533396Y1320700D02*
X535718D01*
X533937Y1244558D02*
X540442D01*
X533000Y1245494D02*
Y1257750D01*
X540442Y1244558D02*
X541230Y1243770D01*
X533000Y1245494D02*
X533937Y1244558D01*
X541230Y1243770D02*
X547063D01*
X547083Y1243750D02*
X567250D01*
X547063Y1243770D02*
X547083Y1243750D01*
X514771Y1252479D02*
X531250Y1236000D01*
X523802Y1209146D02*
X574604D01*
X452500Y1241250D02*
X452956Y1240794D01*
X514771Y1252479D02*
Y1253605D01*
X512124Y1256252D02*
X514771Y1253605D01*
X409252Y1347000D02*
X419000D01*
X407337Y1348915D02*
X407337D01*
X409252Y1347000D01*
X338000Y1378000D02*
Y1387250D01*
X342000Y1374000D02*
X391500D01*
X338000Y1378000D02*
X342000Y1374000D01*
X504750Y1251500D02*
X529750Y1226500D01*
X483750Y1252750D02*
X485000Y1251500D01*
X504750D01*
X529750Y1226500D02*
X539500D01*
X414395Y1309105D02*
X421750Y1301750D01*
X398145Y1309105D02*
X414395D01*
X421750Y1242500D02*
Y1301750D01*
X397500Y1309750D02*
X398145Y1309105D01*
X421750Y1242500D02*
X465173Y1199077D01*
X419500Y1314750D02*
X426750Y1307500D01*
X415933Y1282105D02*
X417605Y1280433D01*
Y1225395D02*
Y1280433D01*
X426750Y1247750D02*
X455000Y1219500D01*
X426750Y1247750D02*
Y1307500D01*
X419000Y1347000D02*
X431250Y1334750D01*
X452000Y1256500D02*
Y1257000D01*
X482748Y1262260D02*
X483750Y1261258D01*
Y1252750D02*
Y1261258D01*
X567250Y1243000D02*
Y1243750D01*
Y1227250D02*
Y1243000D01*
X532500Y1258250D02*
X533000Y1257750D01*
X413250Y1216000D02*
Y1248500D01*
X381645Y1269068D02*
Y1272605D01*
Y1269068D02*
X385786Y1264926D01*
X396824D01*
X366228Y1250478D02*
X366750Y1249956D01*
X399800Y1212470D02*
Y1225950D01*
X366000Y1259750D02*
Y1273250D01*
Y1259750D02*
X399800Y1225950D01*
X394019Y1257811D02*
X410000Y1241831D01*
Y1206536D02*
Y1241831D01*
X396824Y1264926D02*
X413250Y1248500D01*
X374400Y1230650D02*
X374522Y1230772D01*
X336000Y1229294D02*
X361000Y1254294D01*
Y1273250D01*
X404320Y1282105D02*
X415933D01*
X404030Y1282395D02*
X404320Y1282105D01*
X397998Y1284252D02*
X401710D01*
X403567Y1282395D02*
X404030D01*
X397500Y1284750D02*
X397998Y1284252D01*
X401710D02*
X403567Y1282395D01*
X399103Y1182500D02*
X399500Y1182897D01*
X324395Y1182750D02*
X324500Y1182855D01*
X345317Y1284105D02*
X348855D01*
X395250Y1361002D02*
X407337Y1348915D01*
X391500Y1374000D02*
X395250Y1370250D01*
Y1361002D02*
Y1370250D01*
X330250Y1320500D02*
X341000Y1309750D01*
X321500Y1320500D02*
X330250D01*
X319250Y1322750D02*
X321500Y1320500D01*
X337250Y1422500D02*
X357250D01*
X334395D02*
X337250D01*
X332250Y1420355D02*
X334395Y1422500D01*
X431105Y1123755D02*
X435250Y1127900D01*
X430858Y1123755D02*
X431105D01*
X539500Y1226500D02*
X540500Y1227500D01*
X501000Y1204500D02*
X510300Y1195200D01*
X455000Y1219500D02*
X470000Y1204500D01*
X501000D01*
X496069Y1195200D02*
X497600D01*
X492192Y1199077D02*
X496069Y1195200D01*
X465173Y1199077D02*
X492192D01*
X574604Y1209146D02*
X602000Y1181750D01*
X601000Y1170000D02*
X601500D01*
X599579Y1207000D02*
X611250D01*
X591692Y1214886D02*
X599579Y1207000D01*
X602000Y1181750D02*
X650250D01*
X397500Y1314750D02*
X419500D01*
X341000Y1309750D02*
X349500D01*
X320250Y1307750D02*
X335448D01*
X338447Y1304750D01*
X349500D01*
X303000Y1308750D02*
X304000Y1307750D01*
X320250D01*
X303250Y1322750D02*
X319250D01*
X455000Y1219500D02*
X455000D01*
X650250Y1181750D02*
X651250Y1182750D01*
X452000Y1256500D02*
X466750D01*
X467000Y1256250D01*
X348855Y1284105D02*
X349500Y1284750D01*
X381000Y1273250D02*
X381645Y1272605D01*
X567250Y1227250D02*
X567750Y1226750D01*
X526462Y1273250D02*
X550250D01*
X523145Y1276567D02*
X526462Y1273250D01*
X523145Y1276567D02*
Y1279855D01*
X520750Y1282250D02*
X523145Y1279855D01*
X567750Y1226250D02*
Y1226750D01*
X553250Y1276250D02*
X564000D01*
X550250Y1273250D02*
X553250Y1276250D01*
X629750Y1197500D02*
X651000D01*
X651250Y1197750D01*
X361700Y1182470D02*
X362000Y1182170D01*
Y1164750D02*
Y1182170D01*
X455850Y1358800D02*
X459200D01*
X512600Y1335250D02*
Y1346100D01*
Y1333400D02*
Y1335250D01*
X453707Y1360943D02*
X455850Y1358800D01*
X512600Y1320700D02*
Y1333400D01*
X509250Y1358800D02*
X512600D01*
X502250Y1351800D02*
X509250Y1358800D01*
X502250Y1312000D02*
Y1351800D01*
X546119Y1390000D02*
X554000Y1382119D01*
X514450Y1333400D02*
X533396D01*
X508284Y1451435D02*
X522565D01*
X510933Y1445040D02*
X511934Y1444038D01*
X503218Y1446369D02*
X508284Y1451435D01*
X503218Y1444172D02*
Y1446369D01*
X511934Y1443540D02*
X523040D01*
X511934D02*
Y1444038D01*
X502397Y1443351D02*
X503218Y1444172D01*
X522565Y1451435D02*
X523500Y1450500D01*
X523500Y1437500D02*
X523500Y1437500D01*
X506000Y1476500D02*
X523500D01*
X523040Y1443540D02*
X523500Y1444000D01*
X545000Y1390000D02*
X546119D01*
X533396Y1333400D02*
Y1346100D01*
Y1358800D01*
X566996Y1339750D02*
X575250Y1331496D01*
X596750Y1497250D02*
Y1497500D01*
X597000Y1497750D01*
X584683Y1477643D02*
X590717Y1483677D01*
Y1491217D02*
X596750Y1497250D01*
X579143Y1477643D02*
X584683D01*
X578000Y1476500D02*
X579143Y1477643D01*
X590717Y1483677D02*
Y1491217D01*
X587000Y1498000D02*
X587250Y1498250D01*
X587000Y1486460D02*
Y1498000D01*
X578000Y1483000D02*
X579143Y1484143D01*
X584683D01*
X587000Y1486460D01*
X595875Y1464875D02*
X598750Y1467750D01*
D107*
X378500Y1127250D02*
X378750Y1127500D01*
X367000Y1117250D02*
X376743D01*
X378500Y1119007D02*
Y1127250D01*
X376743Y1117250D02*
X378500Y1119007D01*
Y1127750D02*
X378750Y1127500D01*
X367250Y1148750D02*
X376743D01*
X378500Y1127750D02*
Y1146993D01*
X376743Y1148750D02*
X378500Y1146993D01*
X367000Y1149000D02*
X367250Y1148750D01*
X364500Y1151500D02*
X367000Y1149000D01*
X322667Y1417833D02*
Y1430227D01*
X329000Y1411500D02*
X345250D01*
X322667Y1417833D02*
X329000Y1411500D01*
X399800Y1390270D02*
X400820Y1389250D01*
X421000D01*
X412500Y1360270D02*
Y1380750D01*
X421000Y1389250D01*
X337250Y1151500D02*
X364500D01*
X509250Y1124750D02*
X537000D01*
X546500Y1115250D01*
X497675Y1173970D02*
X497750Y1173895D01*
X497600Y1182500D02*
X497675Y1182425D01*
Y1173970D02*
Y1182425D01*
X560750Y1161279D02*
X562527Y1163057D01*
X560750Y1157500D02*
Y1161279D01*
X544887Y1154250D02*
X557500D01*
X560750Y1157500D01*
X557250Y1154000D02*
X557500Y1154250D01*
X576750Y1292820D02*
Y1301750D01*
X559527Y1291063D02*
X574993D01*
X576750Y1292820D01*
X409750Y1290250D02*
Y1300438D01*
X509358Y1470000D02*
X523500D01*
X507938Y1468580D02*
X509358Y1470000D01*
X507126Y1468580D02*
X507938D01*
X526500Y1498250D02*
X526750D01*
X523500Y1495250D02*
X526500Y1498250D01*
X523500Y1489500D02*
Y1495250D01*
X578000Y1489500D02*
Y1495500D01*
X574500Y1499000D02*
X578000Y1495500D01*
X523000Y1457500D02*
X523500Y1457000D01*
X503500Y1457500D02*
X523000D01*
X578000Y1450500D02*
X597750D01*
X598750Y1451500D01*
X591500Y1442750D02*
X596750Y1437500D01*
X589250Y1442750D02*
X591500D01*
X596750Y1437500D02*
X598750Y1435500D01*
X578000Y1444000D02*
X588000D01*
X589250Y1442750D01*
X578000Y1437500D02*
X596750D01*
X578000Y1463500D02*
X578500Y1464000D01*
X586289D01*
X590039Y1467750D01*
X598750D01*
X591650Y1476650D02*
X598750Y1483750D01*
X591650Y1475600D02*
Y1476650D01*
X578000Y1470000D02*
X586250D01*
X588950Y1472700D01*
Y1472900D01*
X591650Y1475600D01*
X514750Y1463500D02*
X523500D01*
X511750Y1460500D02*
X514750Y1463500D01*
D108*
X404500Y1098585D02*
Y1117000D01*
X389290Y1083375D02*
X404500Y1098585D01*
Y1117000D02*
X404750Y1117250D01*
X617343Y1123250D02*
X651000D01*
X655750Y1118500D01*
X587750Y1153250D02*
X602750D01*
X366500Y1441000D02*
X387657D01*
X390000Y1427750D02*
Y1438657D01*
X387657Y1441000D02*
X390000Y1438657D01*
X322667Y1430227D02*
Y1440157D01*
X321395Y1141500D02*
X337250D01*
X325916Y1117250D02*
X346250D01*
X321854Y1113187D02*
X325916Y1117250D01*
X321312Y1113187D02*
X321854D01*
X600883Y1137883D02*
X601265Y1137500D01*
X590750Y1127750D02*
X600883Y1137883D01*
X590750Y1119000D02*
Y1127750D01*
X556500Y1095292D02*
Y1110500D01*
X634250Y1137500D02*
X637250Y1134500D01*
X644046D01*
X645240Y1133305D01*
X645781D01*
X601265Y1137500D02*
X618250D01*
Y1124157D02*
Y1137500D01*
X615500Y1121407D02*
X618250Y1124157D01*
X615500Y1110500D02*
Y1121407D01*
X312750Y1087500D02*
X317750Y1092500D01*
X318969D02*
X321312Y1094843D01*
X317750Y1092500D02*
X318969D01*
X321312Y1094843D02*
Y1113187D01*
X584750Y1230000D02*
X585500Y1229250D01*
X615500D01*
X631500Y1213250D01*
X421882Y1482132D02*
X427632D01*
X411383Y1471633D02*
X421882Y1482132D01*
X427632D02*
X429750Y1484250D01*
X411383Y1458633D02*
Y1471633D01*
X669040Y1262040D02*
Y1275520D01*
X654250Y1247250D02*
X669040Y1262040D01*
X668485Y1276075D02*
X669040Y1275520D01*
X462500Y1420000D02*
X463500Y1421000D01*
X462500Y1410853D02*
Y1420000D01*
X473250Y1391500D02*
X475500Y1389250D01*
X303500Y1352000D02*
X303883Y1351617D01*
X319625Y1334125D02*
X329375D01*
X319250Y1334500D02*
X319625Y1334125D01*
X303883Y1351617D02*
X318133D01*
X319250Y1350500D01*
X329750Y1333750D02*
X349250D01*
X329375Y1334125D02*
X329750Y1333750D01*
X303250Y1251250D02*
Y1266250D01*
X303125Y1279375D02*
Y1292625D01*
X303000Y1292750D02*
X303125Y1292625D01*
Y1279375D02*
X303250Y1279250D01*
Y1266250D02*
Y1279250D01*
Y1266250D02*
X303250Y1266250D01*
X349250Y1333750D02*
X349500Y1333500D01*
X668875Y1306750D02*
X677750Y1297875D01*
Y1249791D02*
Y1297875D01*
X676000Y1248041D02*
X677750Y1249791D01*
X676000Y1247500D02*
Y1248041D01*
X661210Y1306460D02*
Y1314210D01*
X662000Y1315000D01*
X650500Y1295750D02*
X661210Y1306460D01*
X646624Y1344626D02*
Y1389519D01*
Y1344626D02*
X656000Y1335250D01*
X616500Y1347250D02*
X632657D01*
X617457Y1376293D02*
X632657D01*
Y1347250D02*
X635000Y1349593D01*
Y1373950D01*
X632657Y1376293D02*
X635000Y1373950D01*
X589000Y1345750D02*
X593157D01*
X656782Y1348718D02*
X663000Y1342500D01*
X656782Y1348718D02*
Y1389068D01*
X642230Y1312730D02*
Y1322730D01*
X653750Y1334250D02*
X654459D01*
X655459Y1335250D02*
X656000D01*
X654459Y1334250D02*
X655459Y1335250D01*
X642230Y1322730D02*
X653750Y1334250D01*
X668533Y1354217D02*
X672750Y1350000D01*
X668533Y1354217D02*
Y1382567D01*
X672750Y1340337D02*
Y1350000D01*
X650250Y1317837D02*
X672750Y1340337D01*
X650250Y1305500D02*
Y1317837D01*
X525250Y1099843D02*
Y1109750D01*
X532343Y1092750D02*
X555040D01*
X525250Y1099843D02*
X532343Y1092750D01*
X322667Y1440157D02*
X325010Y1442500D01*
X440750Y1275250D02*
Y1284250D01*
X440625Y1275125D02*
X440750Y1275250D01*
X440500Y1284500D02*
X440750Y1284250D01*
X523625Y1424022D02*
X523750Y1423897D01*
X523625Y1424022D02*
Y1430875D01*
X506000Y1389250D02*
X519729D01*
X504500D02*
X506000D01*
X522741Y1412383D02*
X524270Y1410853D01*
X518441Y1412383D02*
X522741D01*
X473250Y1391500D02*
Y1416500D01*
X510400Y1173995D02*
X510500Y1173895D01*
X510400Y1173995D02*
Y1182400D01*
X510300Y1182500D02*
X510400Y1182400D01*
X510300Y1182500D02*
X523000D01*
X475500Y1389250D02*
X480000Y1384750D01*
Y1375841D02*
Y1384750D01*
Y1375841D02*
X485774Y1370067D01*
X611250Y1188000D02*
X612500D01*
X613250Y1188750D01*
Y1197709D01*
X376593Y1354250D02*
X385683D01*
X387100Y1355667D01*
X373593Y1351250D02*
X376593Y1354250D01*
X372709Y1351250D02*
X373593D01*
X349000Y1212470D02*
X349750Y1211720D01*
Y1185688D02*
Y1211720D01*
Y1185688D02*
X352397Y1183041D01*
Y1182500D02*
Y1183041D01*
X624711Y1096039D02*
Y1109211D01*
Y1096039D02*
X624750Y1096000D01*
X602750Y1153250D02*
X617750D01*
X600883Y1151383D02*
X602750Y1153250D01*
X600883Y1137883D02*
Y1151383D01*
X624711Y1109211D02*
X625500Y1110000D01*
X499250Y1077750D02*
X499500Y1078000D01*
Y1090500D01*
X495940Y1233810D02*
X500274D01*
X493000Y1236750D02*
X495940Y1233810D01*
X521863Y1259387D02*
Y1266348D01*
X514348Y1273863D02*
X521863Y1266348D01*
Y1259387D02*
X523000Y1258250D01*
X514348Y1273863D02*
Y1281402D01*
X513500Y1282250D02*
X514348Y1281402D01*
X514164Y1290821D02*
X515843Y1292500D01*
X528907D01*
X513500Y1282250D02*
X514164Y1282914D01*
Y1290821D01*
X531657Y1283093D02*
X532500Y1282250D01*
X531657Y1283093D02*
Y1289135D01*
X531041Y1289750D02*
X531657Y1289135D01*
X531041Y1289750D02*
Y1290365D01*
X528907Y1292500D02*
X531041Y1290365D01*
X534500Y1286750D02*
X540250D01*
X550000Y1260750D02*
X556750Y1254000D01*
X557000D01*
X483250Y1236750D02*
X493000D01*
X467500Y1236250D02*
X467750Y1236500D01*
X483000D01*
X483250Y1236750D01*
X349500Y1349750D02*
X351480Y1347770D01*
X369229D01*
X372709Y1351250D01*
X363500Y1335750D02*
X364750Y1337000D01*
X349500Y1333750D02*
X351500Y1335750D01*
X363500D01*
X303250Y1338750D02*
X303375Y1338875D01*
Y1351875D01*
X303500Y1352000D01*
X337250Y1432500D02*
X351500D01*
X366117Y1440617D02*
X366500Y1441000D01*
X359617Y1440617D02*
X366117D01*
X351500Y1432500D02*
X359617Y1440617D01*
X366250Y1455250D02*
X366375Y1455125D01*
Y1441125D02*
Y1455125D01*
Y1441125D02*
X366500Y1441000D01*
X376500Y1486000D02*
X376750Y1485750D01*
X376500Y1486000D02*
Y1497500D01*
X337250Y1442500D02*
Y1451657D01*
X339593Y1454000D02*
X349000D01*
X337250Y1451657D02*
X339593Y1454000D01*
X325010Y1442500D02*
X337250D01*
X668750Y1306750D02*
X668875D01*
X668220Y1276340D02*
Y1296617D01*
Y1276340D02*
X668750Y1275810D01*
X349000Y1454000D02*
X350250Y1455250D01*
X586796Y1320700D02*
X590146D01*
X619000Y1382913D02*
X622353Y1379560D01*
X612750Y1381500D02*
X616750Y1377500D01*
X586796Y1333400D02*
X587646Y1334250D01*
X586796Y1358800D02*
X587746Y1359750D01*
X596500D01*
X593157Y1345750D02*
X596500Y1349093D01*
Y1359750D01*
X599000Y1362250D01*
X411000Y1458250D02*
X411383Y1458633D01*
X523500Y1431000D02*
X523625Y1430875D01*
X523853Y1392979D02*
X524270Y1393397D01*
X523458Y1392979D02*
X523853D01*
X519729Y1389250D02*
X523458Y1392979D01*
X616500Y1377250D02*
X616750Y1377500D01*
X612750Y1381500D02*
Y1390500D01*
X505391Y1432641D02*
X510250Y1437500D01*
X505391Y1415359D02*
Y1432641D01*
Y1415359D02*
X506000Y1414750D01*
X517574Y1413250D02*
X518441Y1412383D01*
X472250Y1417500D02*
X473250Y1416500D01*
X468750Y1421000D02*
X472250Y1417500D01*
X487250D02*
X490000Y1414750D01*
X472250Y1417500D02*
X487250D01*
X463500Y1421000D02*
X468750D01*
X490000Y1414750D02*
Y1435250D01*
X516750Y1413250D02*
X517574D01*
X506000Y1414750D02*
X515250D01*
X516750Y1413250D01*
X506000Y1406250D02*
Y1414750D01*
Y1390750D02*
Y1406250D01*
X523887Y1402633D02*
X524270Y1402250D01*
X517867Y1402633D02*
X523887D01*
X514250Y1406250D02*
X517867Y1402633D01*
X506000Y1406250D02*
X514250D01*
X504500Y1389250D02*
X506000Y1390750D01*
X510250Y1437500D02*
X523500D01*
X578000Y1431000D02*
X578500Y1430500D01*
X585979D01*
X588084Y1428395D01*
X588625D01*
X619000Y1382913D02*
Y1387250D01*
X606250Y1383685D02*
X612685Y1377250D01*
X606250Y1383685D02*
Y1395500D01*
X620043Y1377250D02*
X622353Y1379560D01*
X599500Y1377250D02*
X612685D01*
X616500D01*
X619000Y1304750D02*
X634250D01*
X641791Y1256500D02*
X648157D01*
X618118Y1270632D02*
X633118D01*
X648157Y1256500D02*
X650500Y1258843D01*
X640791Y1257500D02*
X641791Y1256500D01*
X616500Y1272250D02*
X618118Y1270632D01*
X640011Y1257739D02*
X640250Y1257500D01*
X624500Y1257250D02*
X634500Y1247250D01*
X640011Y1257739D02*
Y1263739D01*
X616500Y1302250D02*
X619000Y1304750D01*
X616500Y1287250D02*
X616750Y1287500D01*
X634250Y1304750D02*
X642230Y1312730D01*
X616500Y1377250D02*
X617457Y1376293D01*
X634500Y1247250D02*
X654250D01*
X633118Y1270632D02*
X640011Y1263739D01*
X616750Y1287500D02*
X632250D01*
X650500Y1258843D02*
Y1295750D01*
X640250Y1257500D02*
X640791D01*
X632250Y1287500D02*
X650250Y1305500D01*
X616500Y1257250D02*
X624500D01*
X591500Y1385250D02*
X599500Y1377250D01*
X583750Y1391250D02*
X588000D01*
D109*
X386930Y1163930D02*
X387750Y1164750D01*
X398000D01*
X412250D02*
Y1165250D01*
X371000Y1261250D02*
X406357Y1225893D01*
X554000Y1315250D02*
Y1339750D01*
X576070Y1171680D02*
X586320D01*
X587750Y1170250D01*
X575250Y1172500D02*
X576070Y1171680D01*
X587500Y1276750D02*
X588000Y1276250D01*
X586796Y1320700D02*
X587500Y1319996D01*
Y1276750D02*
Y1319996D01*
X584143Y1320700D02*
X586796D01*
X371000Y1261250D02*
Y1273250D01*
X406357Y1196130D02*
Y1225893D01*
X398000Y1164750D02*
X405943Y1172693D01*
Y1195717D01*
X406357Y1196130D01*
X567250Y1259500D02*
Y1260000D01*
Y1259500D02*
X578857Y1247893D01*
X580607D01*
X584250Y1244250D01*
Y1243750D02*
Y1244250D01*
X588000Y1264250D02*
Y1276250D01*
X584250Y1260500D02*
X588000Y1264250D01*
X584250Y1260000D02*
Y1260500D01*
X412250Y1165250D02*
X412500Y1165500D01*
Y1182470D01*
X387100D02*
X387500Y1182070D01*
Y1165000D02*
X387750Y1164750D01*
X387500Y1165000D02*
Y1182070D01*
X443750Y1485250D02*
Y1498500D01*
Y1485250D02*
X444750Y1484250D01*
X442750Y1497500D02*
X443750Y1498500D01*
X431500Y1497500D02*
X442750D01*
X490750Y1484750D02*
Y1500500D01*
X489750Y1483750D02*
X490750Y1484750D01*
X489750Y1483750D02*
X490500Y1483000D01*
X523500D01*
X460000Y1484500D02*
Y1500500D01*
X459750Y1484250D02*
X460000Y1484500D01*
X474750Y1484250D02*
Y1500500D01*
X430250Y1467750D02*
X489750D01*
X429750Y1467250D02*
X430250Y1467750D01*
X489750D02*
X497250D01*
X506000Y1476500D01*
D110*
X613000Y1467750D02*
X625250Y1480000D01*
X598750Y1467750D02*
X613000D01*
X642500Y1435500D02*
X645000Y1433000D01*
X598750Y1435500D02*
X642500D01*
X640000Y1480000D02*
X645000Y1485000D01*
X625250Y1480000D02*
X640000D01*
D111*
X599000Y1362250D02*
X616500D01*
X445000Y1450000D02*
X463500D01*
X566996Y1339750D02*
Y1340250D01*
D112*
X503500Y1457500D02*
X505250Y1459250D01*
X498750Y1452750D02*
X503500Y1457500D01*
X505250Y1459250D02*
X512250D01*
X491500Y1452750D02*
X498750D01*
X490000Y1451250D02*
X491500Y1452750D01*
X489375Y1450625D02*
X490000Y1451250D01*
X464125Y1450625D02*
X489375D01*
X463500Y1450000D02*
X464125Y1450625D01*
D113*
X710500Y1086500D02*
D03*
X260500Y1486500D02*
D03*
D114*
X401000Y1075835D02*
D03*
X378750Y1127500D02*
D03*
X389290Y1083375D02*
D03*
X600883Y1137883D02*
D03*
X308855Y1469250D02*
D03*
Y1429750D02*
D03*
X402500Y1424750D02*
D03*
X438219Y1440676D02*
D03*
X421000Y1389250D02*
D03*
X433250Y1392875D02*
D03*
X321395Y1141500D02*
D03*
X387750Y1164750D02*
D03*
X645781Y1133305D02*
D03*
X321312Y1113187D02*
D03*
X626250Y1422250D02*
D03*
X632906Y1412696D02*
D03*
X661500Y1269500D02*
D03*
X668485Y1276075D02*
D03*
X462500Y1410850D02*
D03*
X296250Y1387000D02*
D03*
X295250Y1429750D02*
D03*
X303500Y1352000D02*
D03*
X329750Y1333750D02*
D03*
X331000Y1264750D02*
D03*
X303250Y1279250D02*
D03*
X368000Y1302750D02*
D03*
X379000D02*
D03*
X368000Y1291750D02*
D03*
X379000D02*
D03*
X325766Y1298063D02*
D03*
X396441Y1244855D02*
D03*
X354605Y1257250D02*
D03*
X340017Y1288313D02*
D03*
X411000Y1442500D02*
D03*
X662000Y1315000D02*
D03*
X600250Y1329500D02*
D03*
X656000Y1335250D02*
D03*
X663000Y1342500D02*
D03*
X678960Y1362750D02*
D03*
X672750Y1341000D02*
D03*
X668533Y1382567D02*
D03*
X509250Y1124750D02*
D03*
X322476Y1430418D02*
D03*
X668783Y1213559D02*
D03*
X292040Y1177133D02*
D03*
X440625Y1275125D02*
D03*
X523750Y1423897D02*
D03*
X550250Y1411103D02*
D03*
X473250Y1410850D02*
D03*
X524270Y1410853D02*
D03*
X539000Y1425000D02*
D03*
X497750Y1173895D02*
D03*
X500250Y1221000D02*
D03*
X510500Y1173895D02*
D03*
X497750Y1165250D02*
D03*
X485774Y1370067D02*
D03*
X502397Y1443351D02*
D03*
X587311Y1187395D02*
D03*
X580750Y1181000D02*
D03*
X575250Y1172500D02*
D03*
X613250Y1197500D02*
D03*
X352397Y1182500D02*
D03*
X624750Y1096000D02*
D03*
X562527Y1163057D02*
D03*
X499500Y1090500D02*
D03*
X555040Y1092750D02*
D03*
X602500Y1197500D02*
D03*
X557000Y1234560D02*
D03*
X500250Y1233810D02*
D03*
Y1242750D02*
D03*
X451500Y1312000D02*
D03*
X598540Y1295375D02*
D03*
X540250Y1286750D02*
D03*
X559527Y1291063D02*
D03*
X557000Y1254000D02*
D03*
X408500Y1302500D02*
D03*
X439000Y1311250D02*
D03*
X366228Y1250478D02*
D03*
X410855Y1265059D02*
D03*
X394019Y1257811D02*
D03*
X373250Y1351250D02*
D03*
X336250Y1344000D02*
D03*
X320605Y1387250D02*
D03*
X366500Y1441000D02*
D03*
X376500Y1497500D02*
D03*
X663210Y1174710D02*
D03*
X298750Y1182500D02*
D03*
X324395D02*
D03*
X525000Y1218250D02*
D03*
X452500Y1241250D02*
D03*
X338000Y1387250D02*
D03*
X374522Y1230772D02*
D03*
X646624Y1389519D02*
D03*
X668220Y1296617D02*
D03*
X631500Y1213250D02*
D03*
X412250Y1164750D02*
D03*
X362000D02*
D03*
X399103Y1182500D02*
D03*
X520750Y1369000D02*
D03*
X656782Y1389068D02*
D03*
X613750Y1498500D02*
D03*
X632750Y1237750D02*
D03*
X524270Y1393397D02*
D03*
X534750Y1369000D02*
D03*
X598750Y1280250D02*
D03*
X506000Y1497250D02*
D03*
X411000Y1458250D02*
D03*
X431500Y1497500D02*
D03*
X612750Y1390500D02*
D03*
X510933Y1445040D02*
D03*
X588625Y1428395D02*
D03*
X543000Y1442000D02*
D03*
X550500Y1451000D02*
D03*
X557500Y1442000D02*
D03*
X619000Y1387250D02*
D03*
X606250Y1395500D02*
D03*
X507126Y1468580D02*
D03*
X526750Y1498250D02*
D03*
X574500Y1499000D02*
D03*
X673000Y1442000D02*
D03*
X673250Y1426250D02*
D03*
X640250Y1257500D02*
D03*
X668750Y1306875D02*
D03*
X676000Y1247500D02*
D03*
X597000Y1499000D02*
D03*
X587250D02*
D03*
X550000Y1469250D02*
D03*
X543000Y1460000D02*
D03*
X557500D02*
D03*
Y1478250D02*
D03*
X543000D02*
D03*
X524270Y1402250D02*
D03*
M02*
