G04*
G04 #@! TF.GenerationSoftware,Altium Limited,Altium NEXUS,3.2.6 (83)*
G04*
G04 Layer_Physical_Order=2*
G04 Layer_Color=32768*
%FSLAX44Y44*%
%MOMM*%
G71*
G04*
G04 #@! TF.SameCoordinates,E101C6A8-1949-4893-99AA-7595D6EC33FA*
G04*
G04*
G04 #@! TF.FilePolarity,Negative*
G04*
G01*
G75*
%ADD115C,0.5000*%
%ADD116C,1.0160*%
%ADD117C,1.9160*%
%ADD118C,2.0160*%
%ADD119C,1.7160*%
%ADD120C,3.7160*%
%ADD121C,1.3160*%
D115*
X641750Y1180750D02*
Y1318750D01*
Y1180750D02*
X657250Y1165250D01*
X684000D01*
Y1201500D01*
X401750Y1435500D02*
Y1484250D01*
Y1508000D01*
X574250Y1386250D02*
X641750Y1318750D01*
X570998Y1386250D02*
X574250D01*
X451000D02*
X570998D01*
X401750Y1435500D02*
X451000Y1386250D01*
D116*
X284510Y1455839D02*
X285249Y1453725D01*
X285500Y1451500D01*
X285500Y1081500D01*
X286001Y1077049D01*
X287481Y1072822D01*
X289863Y1069030D01*
X293030Y1065863D01*
X296822Y1063480D01*
X301049Y1062001D01*
X305500Y1061500D01*
X725500D01*
X727725Y1061751D01*
X729839Y1062490D01*
X731735Y1063681D01*
X733318Y1065265D01*
X734510Y1067161D01*
X735249Y1069275D01*
X735500Y1071500D01*
Y1101500D01*
X735249Y1103725D02*
X735500Y1101500D01*
X734510Y1105839D02*
X735249Y1103725D01*
X733318Y1107735D02*
X734510Y1105839D01*
X731735Y1109318D02*
X733318Y1107735D01*
X729839Y1110509D02*
X731735Y1109318D01*
X727725Y1111249D02*
X729839Y1110509D01*
X725500Y1111500D02*
X727725Y1111249D01*
X695500Y1111500D02*
X725500D01*
X693275Y1111751D02*
X695500Y1111500D01*
X691161Y1112490D02*
X693275Y1111751D01*
X689265Y1113681D02*
X691161Y1112490D01*
X687682Y1115265D02*
X689265Y1113681D01*
X686490Y1117161D02*
X687682Y1115265D01*
X685751Y1119275D02*
X686490Y1117161D01*
X685500Y1121500D02*
X685751Y1119275D01*
X685500Y1121500D02*
Y1491500D01*
X684998Y1495950D02*
X685500Y1491500D01*
X683519Y1500177D02*
X684998Y1495950D01*
X681137Y1503970D02*
X683519Y1500177D01*
X677970Y1507136D02*
X681137Y1503970D01*
X674178Y1509519D02*
X677970Y1507136D01*
X669950Y1510998D02*
X674178Y1509519D01*
X665500Y1511500D02*
X669950Y1510998D01*
X245500Y1511500D02*
X665500D01*
X243275Y1511249D02*
X245500Y1511500D01*
X241161Y1510510D02*
X243275Y1511249D01*
X239265Y1509318D02*
X241161Y1510510D01*
X237682Y1507735D02*
X239265Y1509318D01*
X236490Y1505839D02*
X237682Y1507735D01*
X235751Y1503725D02*
X236490Y1505839D01*
X235751Y1469275D02*
X236490Y1467161D01*
X237682Y1465265D01*
X239265Y1463681D01*
X241161Y1462490D01*
X243275Y1461750D01*
X245500Y1461500D01*
X275500D01*
X277725Y1461249D01*
X279839Y1460510D01*
X281735Y1459318D01*
X283318Y1457735D01*
X284510Y1455839D01*
X235500Y1471500D02*
X235751Y1469275D01*
X235500Y1471500D02*
Y1501500D01*
X235751Y1503725D01*
D117*
X669500Y1160250D02*
D03*
Y1190250D02*
D03*
D118*
X561100Y1199000D02*
D03*
X484900Y1188850D02*
D03*
X561100Y1178700D02*
D03*
D119*
X435250Y1115200D02*
D03*
Y1127900D02*
D03*
Y1102500D02*
D03*
X447950D02*
D03*
Y1115200D02*
D03*
D120*
X710500Y1086500D02*
D03*
X260500Y1486500D02*
D03*
D121*
X401000Y1075835D02*
D03*
X389290Y1083375D02*
D03*
X308855Y1469250D02*
D03*
X402500Y1424750D02*
D03*
X438219Y1440676D02*
D03*
X433250Y1392875D02*
D03*
X321395Y1141500D02*
D03*
X387750Y1164750D02*
D03*
X645781Y1133305D02*
D03*
X321312Y1113187D02*
D03*
X626250Y1422250D02*
D03*
X632906Y1412696D02*
D03*
X661500Y1269500D02*
D03*
X668485Y1276075D02*
D03*
X462500Y1410850D02*
D03*
X296250Y1387000D02*
D03*
X295250Y1429750D02*
D03*
X303500Y1352000D02*
D03*
X303250Y1279250D02*
D03*
X368000Y1302750D02*
D03*
X379000D02*
D03*
X368000Y1291750D02*
D03*
X379000D02*
D03*
X325766Y1298063D02*
D03*
X396441Y1244855D02*
D03*
X354605Y1257250D02*
D03*
X340017Y1288313D02*
D03*
X662000Y1315000D02*
D03*
X600250Y1329500D02*
D03*
X656000Y1335250D02*
D03*
X663000Y1342500D02*
D03*
X678960Y1362750D02*
D03*
X672750Y1341000D02*
D03*
X668533Y1382567D02*
D03*
X292040Y1177133D02*
D03*
X440625Y1275125D02*
D03*
X523750Y1423897D02*
D03*
X550250Y1411103D02*
D03*
X473250Y1410850D02*
D03*
X539000Y1425000D02*
D03*
X500250Y1221000D02*
D03*
X510500Y1173895D02*
D03*
X497750Y1165250D02*
D03*
X485774Y1370067D02*
D03*
X502397Y1443351D02*
D03*
X587311Y1187395D02*
D03*
X580750Y1181000D02*
D03*
X575250Y1172500D02*
D03*
X613250Y1197500D02*
D03*
X352397Y1182500D02*
D03*
X624750Y1096000D02*
D03*
X562527Y1163057D02*
D03*
X499500Y1090500D02*
D03*
X555040Y1092750D02*
D03*
X557000Y1234560D02*
D03*
X500250Y1233810D02*
D03*
Y1242750D02*
D03*
X451500Y1312000D02*
D03*
X598540Y1295375D02*
D03*
X540250Y1286750D02*
D03*
X559527Y1291063D02*
D03*
X557000Y1254000D02*
D03*
X408500Y1302500D02*
D03*
X366228Y1250478D02*
D03*
X394019Y1257811D02*
D03*
X373250Y1351250D02*
D03*
X336250Y1344000D02*
D03*
X320605Y1387250D02*
D03*
X366500Y1441000D02*
D03*
X376500Y1497500D02*
D03*
X298750Y1182500D02*
D03*
X324395D02*
D03*
X525000Y1218250D02*
D03*
X452500Y1241250D02*
D03*
X338000Y1387250D02*
D03*
X374522Y1230772D02*
D03*
X646624Y1389519D02*
D03*
X668220Y1296617D02*
D03*
X631500Y1213250D02*
D03*
X412250Y1164750D02*
D03*
X362000D02*
D03*
X399103Y1182500D02*
D03*
X656782Y1389068D02*
D03*
X613750Y1498500D02*
D03*
X632750Y1237750D02*
D03*
X534750Y1369000D02*
D03*
X506000Y1497250D02*
D03*
X411000Y1458250D02*
D03*
X612750Y1390500D02*
D03*
X510933Y1445040D02*
D03*
X588625Y1428395D02*
D03*
X543000Y1442000D02*
D03*
X550500Y1451000D02*
D03*
X557500Y1442000D02*
D03*
X619000Y1387250D02*
D03*
X606250Y1395500D02*
D03*
X507126Y1468580D02*
D03*
X526750Y1498250D02*
D03*
X574500Y1499000D02*
D03*
X640250Y1257500D02*
D03*
X668750Y1306875D02*
D03*
X676000Y1247500D02*
D03*
X597000Y1499000D02*
D03*
X587250D02*
D03*
X550000Y1469250D02*
D03*
X543000Y1460000D02*
D03*
X557500D02*
D03*
Y1478250D02*
D03*
X543000D02*
D03*
M02*
