M48
;Layer_Color=9474304
;FILE_FORMAT=4:4
METRIC,LZ
;TYPE=PLATED
T1F00S00C0.3000
T2F00S00C0.7000
T3F00S00C0.9000
T4F00S00C2.7000
;TYPE=NON_PLATED
T5F00S00C1.0000
%
T01
X00321312Y01113187
X00321395Y011415
X00324395Y011825
X0029875
X0029204Y01177133
X00352397Y011825
X00362Y0116475
X0038775
X0037875Y011275
X0038929Y01083375
X00401Y01075835
X0041225Y0116475
X00399103Y011825
X0049775Y01173895
Y0116525
X005105Y01173895
X0050925Y0112475
X004995Y010905
X0055504Y0109275
X0062475Y01096
X00645781Y01133305
X00600883Y01137883
X0057525Y011725
X0058075Y01181
X00587311Y01187395
X00562527Y01163057
X0066321Y0117471
X00668783Y01213559
X006315Y0121325
X0063275Y0123775
X0064025Y012575
X006615Y012695
X00668485Y01276075
X0066822Y01296617
X0066875Y01306875
X00662Y01315
X00656Y0133525
X00663Y013425
X0067275Y01341
X0067896Y0136275
X00668533Y01382567
X00656782Y01389068
X00646624Y01389519
X00619Y0138725
X0061275Y013905
X0060625Y013955
X00632906Y01412696
X0062625Y0142225
X00588625Y01428395
X005575Y01442
X00543
X005505Y01451
X005575Y0146
X00543
X0055Y0146925
X00543Y0147825
X005575
X005745Y01499
X0058725
X00597
X0061375Y014985
X0052675Y0149825
X00506Y0149725
X00507126Y0146858
X00510933Y0144504
X00502397Y01443351
X0052375Y01423897
X0052427Y01410853
Y0140225
Y01393397
X0052075Y01369
X0053475
X00485774Y01370067
X0047325Y0141085
X004625
X0043325Y01392875
X00421Y0138925
X004025Y0142475
X00411Y014425
Y0145825
X00438219Y01440676
X004315Y014975
X00539Y01425
X0055025Y01411103
X00559527Y01291063
X0054025Y0128675
X00557Y01254
Y0123456
X00525Y0121825
X0050025Y01221
Y0123381
Y0124275
X004525Y0124125
X00440625Y01275125
X00439Y0131125
X004515Y01312
X004085Y013025
X00410855Y01265059
X0059875Y0128025
X0059854Y01295375
X0060025Y013295
X006025Y011975
X0061325
X00676Y012475
X0067325Y0142625
X00673Y01442
X003665Y01441
X00322476Y01430418
X00308855Y0142975
X0029525
X0029625Y01387
X00320605Y0138725
X00338
X0033625Y01344
X0032975Y0133375
X00325766Y01298063
X00340017Y01288313
X00368Y0129175
Y0130275
X00379
Y0129175
X00394019Y01257811
X00396441Y01244855
X00366228Y01250478
X00354605Y0125725
X00331Y0126475
X0030325Y0127925
X003035Y01352
X0037325Y0135125
X00374522Y01230772
X003765Y014975
X00308855Y0146925
T02
X0043525Y011025
Y011152
Y011279
X0044795
Y011152
Y011025
T03
X006695Y0116025
Y0119025
T04
X007105Y010865
X002605Y014865
T05
X004849Y0118885
X005611Y011787
Y01199
M30
